<?xml version="1.0" standalone="no"?>
<!DOCTYPE svg PUBLIC "-//W3C//DTD SVG 20010904//EN"
 "http://www.w3.org/TR/2001/REC-SVG-20010904/DTD/svg10.dtd">
<svg version="1.0" xmlns="http://www.w3.org/2000/svg"
 width="700.000000pt" height="700.000000pt" viewBox="0 0 700.000000 700.000000"
 preserveAspectRatio="xMidYMid meet">
<metadata>
Created by potrace 1.14, written by Peter Selinger 2001-2017
</metadata>
<g transform="translate(0.000000,700.000000) scale(0.100000,-0.100000)"
fill="#000000" stroke="none">
<path d="M2250 5954 c-8 -2 -32 -5 -53 -9 l-38 -6 6 -132 c8 -191 14 -327 20
-452 3 -60 7 -166 10 -235 l4 -125 -64 -50 c-88 -69 -307 -292 -387 -395 -180
-232 -297 -466 -342 -680 -8 -40 -16 -73 -18 -75 -3 -3 -63 -8 -218 -21 -87
-7 -148 -33 -197 -83 -67 -68 -67 -66 -69 -473 l-2 -368 35 -57 c74 -125 102
-137 317 -138 l168 0 26 -70 c42 -114 125 -274 197 -381 37 -54 70 -101 74
-104 3 -3 23 -26 43 -51 55 -69 164 -174 241 -232 l67 -52 0 -242 c0 -133 4
-252 9 -265 23 -62 103 -109 226 -133 109 -22 145 -25 385 -31 240 -7 340 2
416 36 51 22 92 79 96 133 l2 38 51 -7 c27 -3 52 -7 55 -9 38 -23 685 -24 807
-1 10 2 50 7 88 11 l71 7 -4 -42 c-3 -30 1 -47 14 -61 20 -23 103 -63 149 -73
132 -28 193 -34 395 -33 363 0 522 46 600 172 21 33 22 47 21 259 0 214 0 224
20 242 87 79 265 342 365 539 88 176 179 427 200 552 2 15 8 48 14 73 41 201
47 500 14 772 -6 51 -9 58 -33 62 -90 19 -248 23 -326 7 -54 -10 -165 -49
-165 -57 0 -3 29 -33 64 -68 122 -118 206 -275 211 -393 10 -213 -96 -356
-307 -418 -115 -33 -190 -24 -309 35 -215 109 -249 393 -89 733 28 59 25 61
-73 78 -202 34 -395 -62 -535 -264 -54 -78 -132 -226 -152 -289 -6 -21 -14
-38 -17 -38 -3 0 -3 64 0 143 5 149 27 259 69 347 52 110 166 238 264 296 127
75 408 85 624 21 43 -13 48 -12 110 19 66 32 151 62 205 70 17 3 44 9 60 13
62 15 262 3 323 -20 29 -11 29 -1 -8 111 -80 246 -196 426 -415 646 -183 184
-281 255 -471 345 -163 78 -449 165 -629 193 -90 14 -175 26 -215 31 -217 26
-601 26 -840 -1 -54 -6 -55 -5 -74 28 -35 60 -143 193 -220 270 -183 184 -413
310 -628 343 -39 6 -213 13 -238 9z m-86 -2285 c49 -34 70 -74 71 -140 0 -93
-65 -161 -159 -165 -90 -3 -157 54 -173 148 -11 69 44 157 112 178 46 14 111
5 149 -21z m1431 -199 c19 -11 38 -21 43 -22 4 -2 6 -7 4 -12 -2 -5 3 -6 10
-3 16 6 64 -30 54 -40 -4 -4 -12 -1 -17 7 -9 13 -10 13 -6 0 2 -9 14 -14 26
-12 15 1 35 -11 62 -39 51 -53 51 -55 -6 -68 -5 -1 -11 2 -13 9 -2 6 0 10 5 9
25 -4 35 1 24 14 -6 8 -8 17 -4 20 3 4 -3 10 -13 14 -10 3 -23 12 -27 20 -6
10 -13 10 -27 3 -15 -8 -23 -4 -40 21 -13 17 -28 28 -36 25 -17 -7 -18 6 -1
23 6 8 0 6 -14 -3 -24 -15 -27 -15 -40 0 -12 15 -11 16 11 10 19 -6 21 -5 10
3 -8 6 -22 8 -31 5 -11 -3 -18 3 -22 16 -6 25 3 25 48 0z m-18 -46 c3 -8 12
-13 19 -10 7 3 16 1 19 -4 3 -5 12 -7 19 -4 21 8 28 -12 9 -27 -14 -12 -16
-12 -11 2 4 11 0 15 -15 14 -12 -1 -28 2 -34 8 -9 6 -13 6 -13 -2 0 -6 -4 -11
-8 -11 -5 0 -9 7 -9 15 0 8 5 15 11 15 6 0 4 5 -4 10 -10 7 -11 10 -2 10 7 0
15 -7 19 -16z m48 -58 c14 -18 9 -56 -7 -56 -5 0 -7 8 -4 18 3 9 2 22 -2 27
-10 14 -46 19 -37 6 3 -6 13 -11 20 -11 9 0 14 -8 12 -21 -3 -34 20 -34 37 0
18 33 21 55 6 31 -6 -9 -10 -10 -10 -3 0 20 21 26 38 9 12 -10 22 -12 32 -6 9
6 17 5 22 -3 12 -19 9 -30 -5 -19 -10 8 -16 6 -25 -9 -7 -11 -8 -19 -2 -19 5
0 10 5 10 10 0 6 5 10 11 10 5 0 7 -4 4 -10 -3 -5 -2 -10 3 -10 6 0 12 7 16
15 8 21 21 19 23 -5 1 -11 -1 -19 -5 -19 -29 4 -35 -2 -19 -19 19 -20 16 -52
-8 -88 -19 -30 -22 -30 -22 1 0 13 4 23 10 22 6 -1 13 6 15 16 2 9 -1 17 -7
17 -6 0 -8 -6 -5 -13 3 -8 -4 -13 -17 -14 -15 -1 -18 1 -10 11 8 9 3 17 -19
29 -20 12 -27 23 -24 35 4 10 3 13 -3 6 -17 -22 -42 -23 -57 -2 -8 12 -13 25
-10 30 3 4 0 8 -6 8 -6 0 -10 -7 -8 -16 2 -10 -2 -19 -9 -21 -9 -3 -10 4 -3
26 4 16 6 32 3 35 -3 2 -2 9 2 15 9 15 46 7 60 -13z m-25 -81 c7 -8 10 -15 7
-15 -3 0 -13 -3 -21 -6 -12 -5 -15 -2 -10 12 5 15 4 16 -5 4 -5 -8 -13 -11
-18 -7 -4 5 -1 12 7 17 20 13 26 12 40 -5z m227 -16 c-1 -12 5 -24 13 -26 13
-4 13 -3 0 6 -8 5 -11 13 -7 17 4 4 8 5 10 3 1 -2 13 -19 26 -38 13 -19 19
-31 13 -27 -10 6 -26 -23 -17 -32 3 -3 5 0 5 6 0 7 5 12 11 12 6 0 8 -9 4 -20
-4 -12 -2 -20 5 -20 6 0 8 5 5 10 -3 6 -1 10 4 10 6 0 11 -8 11 -18 0 -10 3
-22 7 -26 4 -3 8 -16 10 -28 3 -17 1 -19 -11 -8 -17 13 -40 4 -30 -12 5 -7 2
-9 -7 -6 -10 4 -15 -1 -15 -12 0 -10 5 -16 11 -14 6 3 11 -5 12 -16 2 -19 -11
-28 -20 -12 -2 4 -2 0 0 -8 11 -39 5 -59 -17 -57 -11 1 -18 6 -16 12 2 5 9 9
15 8 6 -2 11 2 11 7 0 6 -7 10 -15 10 -8 0 -15 -4 -15 -9 0 -14 -50 -71 -63
-71 -6 0 -1 10 10 23 11 12 18 28 16 35 -3 7 1 11 9 10 9 -2 12 7 10 32 -4 64
-3 73 10 81 7 5 9 9 3 9 -21 0 -32 -16 -29 -43 2 -24 0 -27 -12 -16 -8 7 -12
20 -9 30 4 11 2 19 -4 19 -6 0 -11 4 -11 8 0 7 18 11 63 12 9 1 15 6 11 11 -3
6 -13 8 -21 5 -9 -4 -13 -1 -11 6 8 23 28 19 45 -10 17 -27 21 -29 37 -16 11
7 23 11 29 7 6 -3 7 -1 3 5 -5 9 -13 9 -26 2 -29 -15 -37 -11 -15 7 18 14 18
15 1 9 -19 -7 -46 9 -46 27 0 7 4 7 12 -1 7 -7 16 -12 21 -12 5 0 2 6 -6 14
-8 8 -22 14 -32 13 -10 -1 -20 3 -22 9 -2 7 6 10 22 9 14 -2 23 1 19 6 -3 5 0
9 5 9 6 0 11 5 11 11 0 6 -9 4 -22 -5 -16 -11 -26 -12 -41 -5 -14 8 -22 8 -31
-1 -8 -8 -7 -10 4 -6 23 9 41 -38 27 -68 -11 -22 -51 -34 -44 -13 1 5 6 8 11
7 13 -3 27 26 21 42 -3 8 -13 15 -22 15 -13 0 -13 -2 2 -14 10 -7 17 -14 14
-16 -2 -1 -12 -8 -21 -15 -15 -12 -16 -10 -13 20 3 40 14 68 26 68 5 0 9 5 9
11 0 5 -5 7 -11 3 -8 -4 -8 0 0 15 15 28 28 27 26 -1 -2 -23 10 -38 30 -38 6
0 5 4 -2 8 -18 12 -21 62 -3 62 5 0 9 -10 7 -21z m-169 -9 c5 -13 3 -13 -11
-1 -11 9 -17 10 -17 2 0 -6 6 -11 13 -11 12 0 -11 -20 -24 -20 -5 0 -5 36 0
48 3 9 35 -5 39 -18z m-85 -7 c4 -3 0 -17 -8 -29 -8 -13 -13 -37 -11 -53 2
-17 -3 -40 -11 -51 -8 -12 -10 -20 -4 -20 6 0 11 5 11 10 0 6 9 19 21 31 19
19 20 21 3 33 -18 14 -14 46 7 46 8 0 9 -4 0 -13 -8 -11 -5 -17 14 -27 14 -7
25 -16 25 -20 0 -4 -11 -13 -25 -20 -21 -11 -23 -16 -12 -28 10 -13 9 -15 -5
-9 -12 4 -15 2 -12 -8 4 -11 -1 -13 -22 -9 -15 3 -31 7 -35 10 -17 10 -37 -9
-34 -32 1 -15 -2 -23 -9 -21 -6 2 -10 11 -10 20 1 9 -2 14 -8 11 -5 -3 -7 -11
-5 -17 2 -7 -4 -24 -15 -39 -18 -26 -18 -27 1 -33 11 -3 25 -13 33 -22 11 -15
11 -16 -7 -9 -17 6 -17 4 4 -18 14 -15 20 -26 14 -26 -6 0 -16 7 -23 15 -7 8
-17 12 -22 9 -6 -4 -8 1 -4 14 8 24 -11 39 -27 23 -9 -9 -8 -11 6 -6 10 4 17
2 17 -4 0 -6 -5 -11 -11 -11 -8 0 -9 -4 0 -13 6 -8 8 -17 4 -20 -3 -4 -1 -7 5
-7 7 0 12 6 12 13 1 6 9 2 19 -10 12 -15 22 -18 28 -12 7 7 11 2 11 -15 0 -20
-4 -24 -13 -16 -9 8 -11 4 -8 -17 7 -49 2 -86 -16 -107 -8 -9 -9 -16 -3 -16 6
0 9 -11 8 -25 -2 -14 5 -32 15 -41 11 -10 19 -12 19 -7 0 6 -8 14 -17 17 -15
6 -15 8 -2 22 18 17 59 27 59 13 0 -5 5 -9 11 -9 8 0 8 4 -1 14 -9 12 -8 15 9
13 12 -1 20 -6 17 -12 -2 -6 4 -11 14 -11 16 0 17 25 1 27 -3 0 -15 2 -26 4
-10 2 -25 -1 -32 -7 -17 -14 -16 2 1 25 14 18 32 24 21 7 -3 -5 -1 -10 5 -10
7 0 9 8 4 22 -6 20 -5 21 9 9 9 -7 14 -17 11 -22 -5 -8 10 -13 30 -10 5 1 5
-6 2 -16 -6 -14 -4 -15 5 -6 13 13 3 37 -12 28 -5 -4 -9 -1 -9 4 0 15 25 14
38 -2 9 -10 7 -19 -4 -35 -8 -12 -11 -22 -6 -22 5 0 14 11 20 25 6 14 16 25
21 25 14 0 35 -30 26 -38 -4 -4 -10 -1 -12 6 -3 6 -9 12 -15 12 -6 0 -4 -7 3
-17 12 -15 12 -16 -3 -10 -13 4 -15 2 -11 -10 4 -11 2 -14 -5 -9 -7 4 -12 2
-12 -3 0 -6 -5 -11 -11 -11 -5 0 -7 5 -4 10 3 6 1 10 -5 10 -7 0 -10 -6 -7
-12 2 -8 23 -13 57 -13 29 0 55 -5 57 -10 5 -15 -103 -11 -122 5 -8 7 -12 16
-9 21 3 5 0 9 -6 9 -7 0 -9 -8 -5 -20 8 -24 -20 -39 -38 -21 -9 10 -7 16 8 28
11 9 13 13 5 10 -8 -2 -23 0 -34 5 -12 7 -22 6 -30 -2 -8 -8 -7 -10 5 -5 12 5
16 0 15 -17 -1 -17 -7 -23 -24 -22 -12 0 -20 -2 -17 -4 3 -3 0 -11 -6 -19 -8
-8 -8 -13 -1 -13 6 0 12 5 14 12 6 16 88 14 99 -3 8 -11 9 -10 7 5 -2 10 3 21
11 24 8 3 11 0 7 -7 -5 -7 -1 -9 11 -5 11 4 6 -4 -12 -21 -23 -21 -26 -26 -11
-23 10 1 21 -2 23 -9 3 -7 -5 -10 -21 -9 -15 2 -23 -1 -20 -8 3 -7 -5 -12 -17
-13 -17 -2 -18 1 -9 13 12 14 4 19 -22 15 -5 0 -8 3 -8 9 0 5 2 10 4 10 2 0
12 3 22 7 12 4 15 3 10 -5 -4 -7 -2 -12 4 -12 27 0 0 25 -28 26 -37 2 -46 -8
-50 -56 -4 -56 -4 -59 -23 -57 -25 2 -31 23 -12 39 15 11 16 11 10 -5 -4 -10
-3 -16 2 -13 13 9 7 71 -7 68 -15 -3 -15 0 2 34 11 19 12 33 5 46 -5 10 -7 18
-3 18 3 0 1 7 -6 15 -7 8 -9 15 -4 15 5 0 1 5 -9 11 -9 6 -15 15 -12 20 4 5
10 7 15 4 10 -6 25 13 17 21 -3 3 -15 0 -27 -6 -15 -8 -20 -8 -16 -1 4 6 3 11
-2 11 -15 0 -23 31 -12 45 6 7 10 17 9 21 -4 21 2 28 12 14 9 -12 10 -12 5 3
-4 12 -2 17 6 14 7 -2 12 -10 10 -17 -1 -7 3 -18 9 -26 15 -18 7 -26 -26 -26
-31 0 -25 -10 9 -13 26 -3 42 19 28 39 -5 6 -7 23 -6 37 2 24 0 26 -29 25 -29
-2 -32 -5 -30 -34 1 -18 -2 -32 -6 -32 -5 0 -8 24 -8 54 1 33 5 52 11 49 5 -4
7 1 3 11 -8 21 46 129 77 154 12 9 23 20 24 24 2 4 13 25 25 45 12 21 21 41
19 46 -1 4 3 7 9 7 5 0 7 5 3 12 -4 7 -3 8 4 4 7 -4 12 -3 12 3 0 5 -6 12 -12
14 -9 4 -7 6 3 6 9 1 19 -2 22 -6z m32 -28 c-2 -23 -1 -24 14 -12 20 19 57 15
78 -6 10 -10 12 -17 6 -17 -7 0 -14 4 -18 9 -8 14 -47 10 -67 -6 -17 -15 -35
-2 -23 16 3 5 1 12 -4 16 -6 3 -8 12 -5 20 9 23 23 8 19 -20z m85 17 c0 -4 -9
-8 -21 -9 -17 -2 -18 1 -9 12 12 14 30 12 30 -3z m-3 -55 c17 -11 78 -109 75
-120 -4 -12 28 -48 38 -42 4 3 8 -6 8 -18 0 -15 -7 -23 -19 -24 -16 -2 -17 2
-9 18 10 18 3 24 -23 20 -4 -1 -7 6 -5 16 4 22 -50 29 -59 7 -3 -7 -10 -11
-16 -7 -5 3 -7 1 -3 -5 3 -6 -5 -23 -19 -39 -23 -25 -25 -25 -20 -6 7 24 -6
36 -28 27 -9 -3 -14 -13 -11 -22 5 -15 4 -15 -9 1 -17 21 -28 22 -21 3 4 -11
-1 -14 -23 -11 -23 3 -32 -2 -44 -24 -15 -26 -15 -29 3 -40 16 -10 22 -8 37
11 10 12 17 27 15 33 -3 6 5 11 16 12 22 2 21 -3 -18 -54 -13 -18 -28 -30 -33
-27 -5 3 -9 0 -9 -6 0 -7 8 -9 22 -4 20 6 21 5 9 -9 -7 -9 -17 -15 -21 -12
-10 6 -22 -24 -14 -37 3 -5 -2 -18 -11 -28 -12 -13 -13 -20 -4 -26 9 -5 8 -10
-5 -19 -15 -12 -15 -13 1 -19 15 -6 15 -8 3 -16 -8 -6 -17 -10 -20 -10 -10 0
-9 39 1 45 5 4 7 10 4 15 -3 5 -1 19 5 30 8 16 8 25 0 34 -8 10 -7 15 4 19 18
7 17 46 -2 69 -8 9 -11 21 -8 27 6 10 -15 36 -35 43 -22 7 8 47 30 41 19 -5
26 -43 8 -43 -4 0 -5 -5 -1 -11 15 -25 25 21 14 66 -7 29 1 47 18 40 35 -15
66 -13 78 3 7 9 10 20 8 24 -11 18 8 29 24 15 20 -16 59 -20 67 -6 4 5 11 9
18 9 21 0 -22 -34 -45 -36 -13 -1 -31 6 -41 14 -16 14 -17 14 -12 0 4 -9 2
-19 -4 -23 -8 -4 -8 -12 -1 -26 7 -13 7 -19 0 -19 -5 0 -10 5 -10 10 0 6 -5
10 -11 10 -8 0 -8 -4 1 -14 9 -12 8 -15 -9 -13 -12 1 -20 6 -17 13 3 7 -5 10
-20 8 -13 -1 -24 3 -24 9 0 5 -3 8 -6 4 -3 -3 -1 -14 5 -24 6 -11 11 -13 11
-5 0 10 3 10 15 -1 9 -9 26 -13 42 -11 46 8 66 6 76 -8 6 -10 7 -8 3 4 -3 12
4 23 24 35 22 12 27 20 19 29 -8 10 -5 12 10 11 13 -1 20 -6 17 -14 -3 -7 -1
-13 5 -13 6 0 9 8 7 18 -2 9 -10 16 -17 14 -8 -2 -11 3 -8 10 7 18 -38 72 -52
63 -7 -3 -9 -14 -6 -24 3 -12 -1 -17 -14 -17 -14 0 -18 7 -16 31 2 16 3 31 4
32 2 4 48 -4 58 -10z m-3 -33 c7 -18 0 -34 -16 -34 -7 0 -6 6 2 15 9 10 9 15
1 15 -6 0 -11 5 -11 10 0 16 17 12 24 -6z m56 6 c0 -5 -4 -10 -10 -10 -5 0
-10 5 -10 10 0 6 5 10 10 10 6 0 10 -4 10 -10z m-50 -80 c0 -15 -14 -19 -27
-8 -11 8 -12 7 -7 -6 9 -24 -26 -34 -42 -11 -7 10 -11 21 -9 25 5 8 85 8 85 0z
m232 -3 c14 -11 22 -37 33 -107 1 -8 9 -31 17 -50 15 -35 15 -50 -2 -50 -5 0
-7 9 -5 20 2 11 -1 20 -6 20 -6 0 -8 4 -4 9 9 15 -15 25 -28 12 -9 -9 -7 -10
8 -5 11 4 17 4 13 -1 -4 -4 -3 -16 3 -26 6 -11 6 -19 0 -19 -5 0 -12 7 -15 16
-4 10 -13 13 -27 9 -18 -6 -20 -5 -10 14 8 14 8 21 1 21 -5 0 -10 -7 -10 -15
0 -8 -5 -15 -11 -15 -5 0 -8 4 -5 8 2 4 -5 8 -17 9 -21 1 -21 1 -3 -10 10 -7
28 -19 39 -28 21 -16 21 -16 -6 -16 -15 0 -25 2 -22 5 3 3 -5 13 -17 21 -13 9
-24 23 -25 31 -3 16 13 19 88 20 15 0 29 7 33 15 4 11 2 14 -7 8 -6 -4 -22 -8
-34 -8 -22 -1 -26 15 -11 40 3 6 4 27 3 48 -3 40 1 43 27 24z m-183 -43 c-11
-13 -2 -19 24 -15 4 0 7 -6 7 -14 0 -16 -16 -20 -24 -6 -7 10 -55 11 -61 1 -2
-4 6 -6 18 -6 24 2 72 -18 82 -35 8 -13 -27 -8 -36 5 -4 5 -23 10 -42 11 -33
2 -35 1 -24 -16 7 -11 16 -19 21 -19 4 0 3 6 -4 14 -9 12 -8 15 9 13 12 -1 20
-6 17 -13 -3 -7 5 -10 20 -8 16 1 24 -2 21 -9 -2 -7 -13 -10 -23 -9 -15 3 -12
-2 11 -23 18 -17 23 -25 12 -21 -12 4 -16 2 -11 -6 5 -7 2 -9 -9 -5 -12 4 -14
2 -10 -11 6 -14 4 -15 -9 -4 -13 10 -17 10 -21 -1 -3 -8 -1 -20 3 -27 5 -8 5
-21 0 -29 -12 -24 -6 -66 9 -63 8 2 11 -3 8 -12 -4 -10 6 -25 26 -40 17 -14
29 -28 25 -31 -8 -9 -108 93 -108 110 0 3 5 3 10 0 6 -3 10 -1 10 5 0 7 -8 9
-19 5 -10 -3 -23 1 -30 9 -11 12 -8 14 16 12 27 -3 43 8 43 29 0 6 -4 4 -9 -3
-8 -13 -17 -14 -81 -10 -25 2 -34 -1 -32 -11 2 -8 -3 -11 -13 -8 -9 4 -23 -4
-37 -23 -12 -17 -26 -30 -31 -30 -5 0 -4 7 4 16 10 12 10 17 1 23 -9 5 -7 12
8 26 22 20 28 8 8 -15 -7 -7 2 -2 20 13 19 15 38 27 43 27 6 0 5 8 -1 20 -6
11 -15 18 -20 15 -6 -4 -8 7 -6 25 4 35 12 47 24 35 4 -4 2 -10 -4 -12 -13 -4
24 -83 39 -83 4 0 3 8 -2 18 -6 11 -6 24 0 33 11 17 12 39 1 24 -29 -40 -38
15 -12 73 17 37 28 41 28 10 1 -13 2 -41 3 -63 1 -22 -2 -47 -5 -56 -8 -19 20
-52 38 -46 6 2 10 12 8 22 -2 10 1 14 7 10 6 -3 11 -1 11 5 0 6 11 16 25 22
14 6 25 15 25 20 0 5 -10 2 -23 -7 -13 -8 -27 -12 -30 -8 -12 11 -7 21 9 19 9
0 19 5 21 12 3 6 0 12 -7 12 -6 0 -8 -4 -5 -10 3 -5 2 -10 -4 -10 -5 0 -12 9
-16 19 -3 11 -13 25 -23 33 -15 11 -15 11 -6 -2 13 -19 13 -72 -1 -77 -14 -4
-13 86 1 95 6 4 17 17 23 30 8 15 18 21 28 18 13 -5 13 -4 4 8 -9 11 -7 14 14
14 20 0 23 -3 14 -14z m-198 -71 c12 -15 12 -16 -3 -10 -10 3 -20 1 -24 -5 -4
-7 -3 -8 4 -4 7 4 12 3 12 -3 0 -15 -18 -23 -25 -11 -5 8 10 50 19 50 2 0 10
-8 17 -17z m276 -52 c1 -14 -3 -18 -15 -14 -15 4 -15 3 -2 -6 9 -7 10 -11 3
-11 -19 0 -26 20 -13 35 17 20 25 19 27 -4z m43 -51 c0 -3 -21 -6 -47 -6 -33
1 -47 -3 -45 -11 2 -15 -14 -17 -23 -4 -7 12 34 41 50 35 6 -3 18 2 25 11 13
16 15 15 27 -1 7 -10 13 -21 13 -24z m70 30 c0 -5 -4 -10 -10 -10 -5 0 -10 5
-10 10 0 6 5 10 10 10 6 0 10 -4 10 -10z m-520 -4 c0 -3 -4 -8 -10 -11 -5 -3
-10 -1 -10 4 0 6 5 11 10 11 6 0 10 -2 10 -4z m261 -20 c-17 -9 -19 -14 -9
-24 8 -8 8 -12 1 -12 -11 0 -39 29 -32 33 36 20 45 24 53 19 5 -2 -1 -10 -13
-16z m315 1 c14 22 42 6 40 -23 0 -13 -5 -22 -11 -20 -5 2 -9 11 -9 20 1 9 -2
16 -7 16 -5 0 -9 -6 -9 -14 0 -8 -6 -17 -12 -20 -7 -3 -4 -4 6 -3 10 1 21 -3
23 -10 2 -7 -3 -10 -14 -8 -10 2 -24 4 -31 4 -9 1 -11 8 -7 20 7 22 -6 34 -27
26 -16 -6 -21 -42 -7 -51 5 -3 9 -2 8 3 -4 20 2 43 10 43 14 0 6 -53 -8 -58
-18 -6 -41 18 -37 40 1 12 11 27 21 34 16 12 22 12 40 0 18 -12 23 -12 31 1z
m-99 -17 c-1 -11 -7 -22 -14 -24 -13 -5 -12 -60 1 -73 3 -4 -1 -17 -9 -30 -15
-22 -10 -29 19 -24 5 1 6 -5 3 -14 -9 -22 6 -18 21 6 7 12 16 18 19 15 3 -3 0
-13 -8 -23 -9 -11 -10 -14 -1 -9 6 4 12 2 12 -3 0 -6 5 -11 11 -11 8 0 8 5 -1
15 -7 8 -8 15 -2 15 12 0 37 -29 30 -36 -7 -7 -39 -8 -58 -2 -8 3 -12 3 -7 1
15 -9 6 -22 -13 -20 -11 1 -19 6 -16 13 3 7 -5 10 -20 8 -16 -1 -24 2 -21 9 2
7 12 11 22 9 11 -2 14 1 10 8 -4 6 -13 9 -21 6 -8 -3 -17 1 -21 9 -4 12 -9 13
-19 4 -10 -8 -13 -6 -11 10 1 12 6 20 12 17 6 -2 11 4 11 14 0 16 -25 17 -27
1 0 -3 -2 -15 -4 -26 -2 -10 1 -25 7 -32 18 -22 -5 -14 -35 11 -22 19 -25 26
-14 35 8 6 17 8 20 4 7 -6 11 12 8 31 -1 5 6 5 16 2 14 -6 15 -4 6 5 -13 13
-37 3 -28 -12 4 -5 1 -9 -4 -9 -14 0 -14 23 0 37 12 12 39 6 52 -11 5 -7 6 -3
3 7 -4 13 0 20 12 23 9 3 25 18 34 35 20 34 27 37 25 9z m-317 -6 c0 -15 -26
-25 -45 -18 -30 12 -11 33 28 31 9 -1 17 -7 17 -13z m170 -9 c12 -15 6 -35
-11 -35 -6 0 -7 5 -4 10 4 6 1 17 -5 25 -7 9 -8 15 -2 15 5 0 15 -7 22 -15z
m110 5 c0 -14 -14 -19 -26 -10 -9 8 -12 6 -10 -7 0 -12 -6 -18 -19 -19 -11 0
-30 -6 -42 -14 -16 -11 -19 -18 -12 -31 7 -14 5 -17 -10 -16 -21 1 -27 47 -7
47 16 0 58 39 52 49 -3 4 13 7 34 7 22 0 40 -3 40 -6z m200 0 c0 -5 -4 -10
-10 -10 -5 0 -10 5 -10 10 0 6 5 10 10 10 6 0 10 -4 10 -10z m40 -22 c0 -6 -7
-5 -15 2 -15 12 -21 4 -16 -23 1 -5 -9 -6 -21 -2 l-23 7 23 -17 c12 -9 20 -21
17 -26 -4 -5 -1 -9 4 -9 6 0 11 5 11 10 0 6 7 10 15 10 8 0 15 5 15 10 0 7 -6
7 -19 0 -17 -8 -20 -7 -18 10 1 11 7 18 13 16 6 -2 17 1 23 7 8 8 11 5 12 -13
0 -14 3 -19 6 -12 5 12 63 -51 63 -69 0 -17 2 -24 13 -44 14 -26 18 -103 6
-111 -5 -3 -7 -11 -3 -17 3 -7 -2 -3 -10 7 -9 11 -16 23 -16 28 0 4 -9 0 -20
-9 -11 -9 -17 -19 -15 -21 3 -3 11 1 20 8 8 7 15 8 15 2 0 -15 -28 -35 -40
-27 -15 9 -12 35 5 41 12 5 13 9 4 20 -7 8 -12 22 -13 32 -2 20 -27 62 -38 62
-4 0 -5 -6 -2 -13 3 -8 -4 -13 -17 -14 -17 -2 -18 1 -9 13 9 10 9 14 1 14 -6
0 -11 -4 -11 -10 0 -5 -5 -10 -11 -10 -5 0 -7 5 -4 10 4 7 -3 9 -20 6 -18 -3
-25 -1 -22 7 2 7 13 11 23 10 10 -1 13 0 7 3 -20 9 -15 23 7 21 11 -1 19 -6
16 -12 -2 -6 4 -11 14 -11 11 0 16 5 12 15 -3 9 -1 12 6 7 15 -9 26 14 13 27
-9 9 -11 8 -6 -4 5 -13 -2 -16 -42 -14 -39 1 -49 5 -51 21 -3 16 -1 16 7 4 7
-10 11 -11 11 -2 0 6 5 12 11 12 5 0 7 -4 4 -10 -3 -5 -1 -10 5 -10 7 0 10 6
8 13 -3 6 -11 12 -19 12 -8 0 -17 4 -20 9 -4 5 -10 -1 -14 -13 -4 -12 -2 -28
5 -36 11 -14 6 -35 -8 -35 -7 0 -11 20 -13 67 -1 13 -5 20 -10 17 -17 -10 -6
-68 18 -97 13 -16 20 -34 17 -39 -4 -7 -2 -8 4 -4 7 4 12 5 12 2 0 -2 3 -13 6
-23 6 -15 4 -16 -7 -5 -16 15 -29 16 -29 2 0 -5 5 -9 11 -7 6 1 13 -3 15 -8 2
-6 -4 -11 -15 -12 -22 -2 -33 27 -19 51 8 14 4 24 -16 45 -16 17 -24 34 -21
43 4 9 2 19 -4 23 -7 4 -8 0 -5 -10 4 -9 3 -15 -2 -14 -22 4 -35 -2 -28 -12 4
-8 9 -7 16 2 8 11 9 11 5 -1 -2 -8 -14 -16 -26 -16 -17 -1 -20 3 -15 15 7 18
7 21 -1 69 l-5 34 31 -27 c28 -23 33 -24 43 -10 7 10 21 14 37 12 19 -4 34 2
55 22 28 26 54 25 54 -1z m-465 -18 c-3 -4 2 -13 10 -20 8 -7 15 -18 15 -24
-1 -6 -9 -1 -19 10 -12 16 -22 19 -34 13 -12 -7 -15 -5 -14 10 1 12 9 19 24
19 12 0 21 -4 18 -8z m-411 -51 c-3 -6 -1 -14 5 -18 7 -5 5 -14 -8 -28 -11
-11 -17 -24 -13 -29 4 -4 -1 -4 -10 -1 -12 4 -15 2 -11 -9 4 -10 0 -13 -13 -8
-16 5 -17 4 -4 -6 13 -10 13 -11 -2 -6 -27 8 -22 1 22 -29 22 -15 43 -25 47
-21 4 4 -3 9 -15 13 -26 6 -28 16 -7 33 9 7 14 19 11 27 -7 17 4 44 15 38 4
-3 5 -13 2 -22 -5 -12 -3 -14 8 -8 7 5 4 -4 -7 -20 -20 -27 -20 -29 -2 -47 19
-19 33 -24 23 -8 -3 6 -1 10 4 10 6 0 11 -2 11 -4 0 -2 2 -11 5 -18 10 -24
-66 -15 -103 12 -26 19 -35 21 -45 11 -10 -10 -8 -11 6 -5 10 3 17 3 16 -2 -5
-27 1 -36 15 -24 12 9 15 8 13 -9 -2 -26 -12 -27 -34 -1 -19 22 -33 26 -33 9
0 -5 5 -7 12 -3 8 5 9 2 4 -12 -4 -10 -4 -15 0 -11 4 4 18 0 31 -8 22 -15 29
-10 24 18 0 4 6 7 14 7 20 0 19 -6 -5 -40 -16 -23 -17 -29 -5 -33 8 -4 12 -1
9 6 -3 9 13 12 61 11 36 0 65 3 65 8 0 5 -10 7 -22 3 -21 -5 -21 -5 -6 7 12
10 14 19 7 31 -6 9 -7 22 -3 29 4 6 3 8 -4 4 -6 -3 -13 3 -17 14 -5 16 -10 18
-19 11 -13 -11 -26 -5 -26 11 0 5 4 6 10 3 6 -4 7 1 3 11 -5 13 -3 15 8 9 20
-13 53 -56 56 -74 1 -9 7 -17 13 -19 5 -2 7 -8 4 -13 -3 -6 9 -9 30 -7 26 1
38 8 42 22 6 19 7 19 22 0 11 -14 13 -15 9 -2 -3 9 0 19 9 22 17 6 18 1 3 -25
-6 -12 -17 -18 -25 -15 -11 4 -12 2 -4 -14 6 -11 6 -21 1 -25 -5 -3 -12 3 -14
12 -3 10 -4 1 -2 -19 2 -39 -19 -83 -36 -73 -13 9 -11 25 3 22 8 -1 12 13 13
41 1 23 -3 42 -7 42 -5 0 -6 -10 -2 -22 6 -20 5 -21 -9 -9 -9 7 -14 17 -11 22
3 5 1 9 -4 9 -5 0 -12 -9 -15 -19 -4 -15 -1 -18 12 -13 14 5 14 4 2 -11 -9
-11 -10 -17 -2 -17 6 0 11 6 11 13 0 8 4 7 10 -3 14 -22 12 -26 -10 -27 -13
-1 -25 7 -32 23 -6 13 -15 24 -20 24 -5 0 -2 -10 6 -22 11 -16 13 -25 4 -35
-13 -16 -38 -17 -38 -2 0 5 4 8 9 4 15 -9 25 15 12 28 -9 9 -11 8 -5 -6 3 -10
3 -17 -2 -16 -20 3 -35 -2 -30 -10 3 -5 -2 -15 -11 -22 -14 -12 -15 -11 -9 9
5 14 3 22 -4 22 -6 0 -8 -4 -5 -10 3 -5 1 -10 -4 -10 -6 0 -11 2 -11 4 0 2 -2
11 -5 19 -4 10 1 13 17 12 29 -3 45 3 51 19 3 6 -3 12 -13 12 -10 0 -16 -5
-14 -11 3 -6 -5 -11 -17 -12 -17 -2 -18 1 -9 13 8 8 8 14 2 14 -5 0 -12 -6
-15 -14 -9 -23 -56 3 -54 29 1 13 -4 20 -15 20 -10 0 -24 9 -32 20 -12 17 -12
23 0 47 8 16 19 28 25 28 6 0 8 4 5 9 -3 5 4 20 17 33 12 14 23 32 25 39 2 8
8 16 13 17 5 2 9 10 9 18 0 8 5 14 11 14 5 0 7 -5 3 -11z m546 -101 c2 2 6 0
7 -5 2 -5 -6 -9 -17 -10 -11 -1 -20 4 -20 11 0 7 -9 21 -20 31 -11 10 -20 14
-20 9 0 -6 -10 -10 -22 -11 l-23 -2 24 20 24 19 31 -32 c17 -18 33 -32 36 -30z
m64 33 c3 -5 -1 -14 -9 -21 -7 -6 -11 -18 -8 -26 3 -9 0 -14 -8 -12 -7 2 -15
-5 -17 -14 -2 -10 1 -18 7 -18 6 0 8 6 5 13 -3 8 4 13 17 14 16 2 18 -1 9 -12
-9 -10 -7 -15 9 -20 48 -15 61 -73 25 -113 -13 -15 -24 -22 -24 -16 0 6 6 17
14 23 13 11 17 66 5 66 -3 0 -13 7 -22 17 -9 9 -28 15 -42 14 -22 -3 -24 0
-20 21 2 14 12 37 22 52 9 14 16 29 15 34 -3 10 16 9 22 -2z m240 -40 c3 -5
-5 -8 -19 -8 -14 0 -22 3 -20 7 3 4 -2 10 -10 14 -8 3 -15 10 -15 16 0 11 55
-13 64 -29z m-864 4 c-7 -8 -17 -15 -23 -15 -5 0 -2 9 8 20 21 23 35 19 15 -5z
m915 -10 c0 -11 4 -26 9 -33 4 -7 5 -16 2 -20 -10 -9 -46 -10 -46 0 0 4 5 8
10 8 15 0 12 26 -5 40 -21 18 -19 27 8 26 15 -1 22 -7 22 -21z m-265 3 c0 -15
-18 -17 -30 -3 -9 11 -8 14 9 12 12 -1 21 -5 21 -9z m-107 -11 c18 -1 25 -17
7 -17 -5 0 -10 -5 -10 -11 0 -5 5 -7 11 -3 8 4 8 0 0 -15 -16 -29 -29 -27 -26
4 2 14 -2 26 -8 27 -7 0 -16 2 -22 2 -5 1 -16 5 -22 9 -12 7 -18 -3 -14 -25 2
-12 -13 -9 -29 5 -8 6 -5 1 6 -13 31 -38 56 -81 51 -87 -3 -2 -13 7 -22 21
-10 14 -22 23 -28 19 -6 -4 -8 0 -4 9 3 9 -2 23 -13 33 -17 15 -17 18 -3 35
13 14 26 17 62 14 25 -3 54 -6 64 -7z m212 -12 c-3 -23 18 -41 36 -29 5 3 9 1
9 -5 0 -14 -23 -19 -43 -9 -9 5 -22 6 -27 3 -5 -3 -15 3 -22 15 -15 23 -30 27
-22 6 4 -11 -1 -14 -21 -12 -34 4 -41 12 -25 31 8 9 22 13 41 10 15 -3 30 -2
33 3 2 4 13 8 24 9 14 1 18 -4 17 -22z m92 -5 c-1 -11 -6 -21 -13 -24 -14 -5
-13 -124 1 -134 14 -10 19 -46 6 -37 -21 12 -37 60 -35 102 l2 42 -32 -36 -33
-35 0 30 c0 23 4 29 16 25 14 -4 14 -3 1 5 -10 8 -18 8 -27 0 -9 -7 -15 -6
-19 7 -7 16 -8 16 -17 0 -8 -14 -11 -15 -18 -4 -14 22 -11 26 14 24 12 -1 22
-3 22 -5 0 -1 9 -3 20 -5 11 -1 28 -6 37 -10 12 -5 23 4 42 34 29 46 35 50 33
21z m34 -14 c-15 -18 -6 -37 13 -30 7 3 16 -3 20 -13 3 -10 9 -25 12 -33 4
-12 4 -12 -4 -1 -7 10 -9 6 -9 -13 0 -36 -12 -45 -28 -23 -11 16 -13 14 -12
-17 1 -19 5 -32 9 -30 4 3 8 1 8 -5 0 -16 -17 -22 -28 -8 -5 6 -8 22 -7 34 1
16 -2 20 -10 13 -8 -7 -11 6 -11 50 0 48 2 57 13 48 9 -8 10 -14 3 -23 -8 -9
-7 -15 2 -18 10 -4 10 -7 -1 -15 -8 -6 -9 -12 -3 -16 13 -8 23 19 15 41 -5 12
-3 14 8 8 9 -5 8 -2 -3 11 -17 20 -19 39 -4 62 6 10 11 11 19 3 7 -7 6 -15 -2
-25z m-581 -1 c-12 -15 -4 -20 23 -16 14 2 7 -18 -12 -31 -10 -7 -19 -17 -19
-23 0 -5 -6 -11 -12 -13 -8 -3 -9 1 -3 14 5 11 8 30 7 44 -2 29 3 40 18 40 7
0 6 -6 -2 -15z m213 -5 c2 -9 0 -25 -5 -34 -6 -11 -6 -22 3 -32 6 -8 9 -17 7
-20 -9 -8 -51 56 -53 81 -2 18 2 23 20 23 14 0 25 -8 28 -18z m-443 -31 c0 -5
-5 -9 -12 -9 -6 0 -8 -3 -4 -7 4 -5 14 1 22 11 12 17 14 17 14 4 0 -9 -5 -20
-12 -24 -19 -12 -79 -11 -75 1 2 5 11 9 20 9 8 -1 13 4 11 10 -2 6 5 12 16 13
11 1 20 -2 20 -8z m355 0 c-10 -15 -59 -35 -82 -33 -13 0 -23 -2 -23 -7 0 -4
8 -7 18 -7 9 0 26 -3 37 -7 16 -5 17 -5 5 4 -8 6 -12 11 -8 11 3 0 13 2 20 5
8 3 14 -2 15 -14 2 -21 -26 -33 -48 -21 -22 12 -64 6 -61 -9 1 -7 -3 -11 -10
-8 -7 2 -23 -5 -35 -16 -13 -11 -23 -16 -23 -10 0 12 57 63 70 63 5 0 10 8 12
17 2 11 14 17 37 18 19 1 36 6 38 11 2 5 12 10 23 11 11 1 18 -2 15 -8z m181
-4 c-3 -8 5 -11 20 -9 16 1 24 -2 21 -9 -2 -7 -17 -11 -32 -11 -18 1 -35 -6
-47 -20 -9 -11 -17 -16 -18 -10 0 5 6 16 13 23 10 11 9 12 -2 6 -11 -6 -13 -4
-8 8 4 11 2 14 -9 10 -9 -3 -11 -10 -6 -17 4 -6 7 -24 7 -41 -2 -41 12 -58 36
-44 13 6 19 6 19 -1 0 -5 -4 -10 -10 -10 -5 0 -10 -5 -10 -11 0 -8 4 -8 14 1
12 9 15 8 13 -9 -1 -12 -6 -20 -13 -17 -7 3 -10 -5 -8 -20 1 -16 -2 -24 -9
-21 -7 2 -11 16 -11 31 1 17 -8 37 -21 50 -15 15 -22 32 -19 52 1 15 -2 34 -8
41 -6 8 -9 14 -7 16 33 19 47 23 71 23 18 0 27 -4 24 -11z m-709 -2 c-4 -3 1
-11 9 -18 15 -10 15 -14 0 -44 -10 -18 -23 -30 -29 -28 -15 5 -22 37 -8 37 6
0 8 -8 4 -17 -5 -15 -3 -14 10 2 18 23 22 45 7 45 -5 0 -6 -7 -3 -17 4 -11 3
-14 -5 -9 -9 6 -10 28 -3 54 1 1 6 2 13 2 6 0 8 -3 5 -7z m843 -33 c0 -3 -8
-10 -18 -17 -16 -10 -19 -8 -19 17 0 25 3 27 19 17 10 -7 18 -14 18 -17z m245
-36 c-1 -24 1 -42 3 -39 3 2 14 -12 25 -33 11 -20 25 -40 31 -44 6 -4 7 -8 1
-8 -5 0 1 -7 13 -16 18 -12 20 -19 12 -29 -7 -8 -9 -19 -5 -25 3 -5 1 -10 -4
-10 -6 0 -11 5 -11 11 0 6 -9 8 -20 4 -26 -8 -40 23 -17 40 22 16 8 33 -27 31
-16 0 -31 4 -33 10 -3 8 9 11 32 9 19 -1 33 1 29 4 -3 3 -9 6 -12 6 -20 2 -52
18 -52 26 0 6 5 7 10 4 6 -3 10 -1 10 5 0 7 -6 10 -12 7 -7 -2 -13 -13 -13
-24 0 -12 -9 -31 -20 -44 -11 -12 -14 -19 -6 -14 11 6 13 4 8 -8 -4 -12 -2
-14 11 -10 14 6 15 4 4 -9 -10 -13 -10 -17 2 -21 9 -4 13 -1 10 6 -2 7 4 13
16 14 11 1 20 -4 20 -13 0 -8 0 -17 1 -21 0 -4 -4 -9 -10 -11 -7 -2 -9 4 -5
15 5 14 4 15 -4 3 -6 -8 -8 -18 -6 -22 3 -4 2 -8 -2 -8 -10 0 -54 49 -54 61 0
5 -5 9 -11 9 -6 0 -4 -9 5 -22 11 -16 13 -25 4 -35 -12 -15 -38 -17 -38 -3 0
6 -5 10 -11 10 -5 0 -8 -4 -4 -9 6 -11 -35 -42 -47 -35 -14 9 -9 22 8 20 9 0
19 5 21 12 3 6 0 12 -7 12 -6 0 -8 -4 -5 -10 3 -5 1 -10 -4 -10 -6 0 -11 6
-11 13 0 8 -4 7 -11 -3 -8 -12 -10 -12 -7 4 2 16 12 20 51 21 40 2 47 -1 42
-14 -5 -12 -3 -13 6 -4 13 13 2 36 -13 27 -7 -5 -9 -2 -6 7 4 10 -1 15 -12 15
-10 0 -16 -5 -14 -11 3 -6 -5 -11 -16 -12 -22 -2 -27 12 -7 21 6 3 3 4 -7 3
-10 -1 -21 3 -23 10 -3 8 4 10 22 7 17 -3 24 -1 20 6 -3 5 -1 10 4 10 6 0 11
-4 11 -10 0 -5 5 -10 11 -10 8 0 8 4 -1 14 -9 12 -8 15 9 13 13 -1 20 -6 17
-14 -3 -7 -2 -13 2 -13 11 0 36 42 38 62 1 10 6 24 13 32 9 11 8 15 -3 19 -11
4 -13 1 -9 -10 4 -10 2 -14 -4 -10 -9 6 -11 1 -15 -42 -2 -18 -38 -27 -38 -9
0 4 -16 -2 -35 -13 -19 -12 -35 -16 -35 -10 0 5 7 14 16 19 11 6 13 11 5 16
-6 4 -11 1 -11 -6 -1 -7 -7 -2 -15 12 -16 28 -21 19 -5 -10 8 -14 5 -25 -13
-47 -24 -29 -34 -87 -18 -97 5 -3 9 4 10 17 2 47 6 67 13 67 14 0 19 -21 8
-35 -6 -8 -9 -23 -5 -35 8 -26 -23 -40 -40 -17 -16 22 -32 8 -32 -30 1 -39 22
-50 49 -27 10 10 21 15 24 12 3 -3 -7 -15 -22 -27 -24 -19 -30 -20 -48 -7 -13
8 -21 24 -20 39 0 19 -3 24 -12 16 -8 -7 -11 -2 -11 16 0 19 3 23 12 15 22
-18 27 18 5 40 -11 11 -20 25 -20 30 0 6 -5 10 -10 10 -6 0 -4 -10 5 -23 8
-13 12 -26 9 -30 -13 -13 -14 -68 -1 -73 12 -4 22 -44 11 -44 -2 0 -12 12 -22
28 -25 40 -50 39 -43 -1 1 -5 -3 -7 -9 -5 -7 2 -11 6 -10 8 9 43 14 50 31 45
11 -4 19 -2 19 3 0 6 -12 8 -27 6 -51 -8 -88 -8 -107 -1 -23 9 -59 -20 -51
-41 3 -8 0 -12 -7 -9 -15 5 -11 38 5 50 8 5 5 7 -7 5 -10 -2 -21 2 -23 8 -4
11 70 11 98 -1 10 -3 20 -2 24 4 3 6 0 9 -8 5 -7 -2 -14 1 -14 9 0 8 11 14 28
14 27 0 34 -14 14 -30 -6 -5 -1 -6 10 -2 11 4 30 7 42 7 11 -1 24 5 27 14 8
20 -1 35 -17 28 -7 -2 -13 4 -14 14 -1 10 4 19 10 20 7 0 23 3 35 6 18 4 22 2
18 -9 -3 -10 0 -12 12 -8 15 6 15 5 3 -10 -11 -14 -11 -17 0 -18 8 -1 18 -1
23 0 5 1 6 -5 2 -14 -3 -10 -2 -14 5 -10 6 4 8 14 4 23 -3 9 5 26 21 43 20 21
24 31 16 45 -14 25 -3 57 17 49 11 -4 13 -3 5 5 -18 18 -42 1 -39 -26 1 -15
-2 -23 -9 -21 -6 2 -10 14 -8 26 1 15 -2 21 -10 18 -7 -2 -12 -11 -10 -19 2
-11 -8 -14 -43 -13 -25 1 -45 -2 -45 -7 0 -5 5 -6 10 -3 13 8 13 -2 0 -18 -6
-7 -19 -23 -30 -37 -18 -22 -20 -23 -18 -5 2 11 6 23 11 26 13 9 17 50 7 69
-6 11 -4 24 6 38 8 12 11 22 5 22 -5 0 -13 -9 -16 -20 -8 -24 -41 -45 -50 -30
-9 15 15 52 30 46 9 -3 12 0 9 9 -4 11 1 13 22 9 38 -7 40 -11 20 -32 -10 -12
-14 -26 -10 -36 5 -14 9 -15 15 -4 11 18 52 20 45 2 -8 -21 8 -17 22 6 7 12
17 18 22 15 5 -3 18 -1 29 5 22 11 45 -5 56 -40 6 -20 9 -21 47 -23 25 -2 51
33 31 40 -7 3 -13 9 -13 14 0 4 7 6 15 3 10 -4 18 3 25 21 10 26 30 30 38 7 2
-7 -2 -10 -12 -6 -21 8 -20 2 3 -18 19 -16 20 -15 19 5 -1 12 -6 28 -11 35 -6
8 -5 17 3 27 18 22 28 3 25 -51z m-527 33 c13 -17 9 -37 -8 -37 -5 0 -7 6 -4
14 3 8 1 17 -5 20 -5 4 -10 -2 -11 -11 -1 -45 -5 -63 -12 -63 -4 0 -8 4 -8 10
0 5 -10 9 -21 7 -12 -1 -24 3 -26 9 -2 7 6 10 21 9 27 -3 37 12 31 45 -5 25
23 24 43 -3z m-510 -9 c2 -48 1 -109 0 -128 -2 -22 -18 -28 -18 -7 0 9 -2 9
-8 -1 -11 -17 -40 -5 -47 19 -4 11 -1 27 7 36 8 10 8 14 1 10 -6 -4 -14 -3
-18 3 -3 5 2 10 13 10 12 0 26 14 38 40 21 45 32 50 32 18z m752 12 c0 -5 -4
-10 -10 -10 -5 0 -10 5 -10 10 0 6 5 10 10 10 6 0 10 -4 10 -10z m98 -13 c0
-14 -7 -23 -17 -25 -27 -3 -66 -10 -66 -12 0 -2 -10 -4 -22 -5 -25 -2 -28 2
-13 25 8 12 10 12 16 -4 6 -17 8 -17 16 -2 7 12 13 14 22 7 9 -7 19 -3 37 14
13 13 25 24 25 24 1 1 2 -9 2 -22z m-548 -19 c0 -4 -9 -13 -20 -21 -20 -14
-20 -14 1 -38 18 -20 20 -21 17 -5 -1 10 2 21 9 23 7 3 10 -5 9 -21 -2 -15 1
-23 8 -20 7 3 12 -5 13 -17 2 -17 -1 -18 -13 -9 -9 8 -14 9 -14 2 0 -6 6 -13
13 -16 10 -5 10 -7 0 -12 -7 -3 -13 -10 -13 -16 0 -7 5 -6 14 2 12 9 15 8 13
-9 -1 -12 -6 -20 -13 -17 -7 3 -10 -5 -8 -20 1 -16 -2 -24 -9 -21 -7 2 -10 13
-9 23 3 15 -2 12 -23 -11 -17 -18 -25 -23 -21 -12 4 12 2 16 -6 11 -7 -5 -9
-2 -5 9 4 12 2 14 -11 10 -14 -6 -15 -4 -4 9 10 13 10 17 -1 21 -8 3 -20 1
-27 -3 -8 -5 -21 -5 -29 0 -24 12 -66 6 -63 -9 2 -8 -3 -11 -11 -8 -8 3 -26
-6 -40 -19 -27 -25 -43 -32 -32 -14 3 6 1 10 -5 10 -14 0 -8 -22 7 -27 6 -2
18 3 26 12 17 17 31 20 22 5 -3 -5 -1 -10 5 -10 7 0 9 8 4 22 -6 20 -5 21 9 9
9 -7 14 -17 11 -22 -5 -8 10 -13 30 -10 5 1 5 -6 2 -16 -6 -14 -4 -15 5 -6 13
13 3 37 -12 28 -5 -4 -9 -1 -9 4 0 14 23 14 37 0 12 -12 6 -39 -11 -52 -7 -5
-3 -7 8 -5 10 2 21 -2 23 -8 2 -7 -16 -10 -52 -8 -41 2 -58 -2 -62 -12 -7 -20
-16 -18 -32 7 -11 19 -11 21 3 16 25 -10 49 3 35 19 -8 10 -6 13 10 11 12 -1
20 -6 17 -12 -2 -6 4 -11 14 -11 16 0 17 25 1 27 -3 0 -15 2 -25 4 -11 2 -27
0 -36 -5 -19 -10 -64 15 -55 31 4 5 1 9 -4 9 -6 0 -11 -5 -11 -11 0 -5 -4 -8
-8 -5 -4 2 -9 -5 -9 -16 -2 -20 -1 -20 12 -2 13 18 14 18 12 -3 -1 -13 -7 -23
-14 -23 -7 0 -1 -11 13 -25 24 -24 25 -28 11 -48 -9 -13 -24 -22 -40 -21 -14
0 -23 -4 -20 -10 3 -5 1 -6 -6 -2 -6 4 -9 12 -6 17 10 14 26 101 27 142 1 15
7 32 15 38 16 14 17 -2 1 -21 -11 -12 -10 -12 3 -2 8 6 26 10 39 7 21 -4 109
40 110 56 0 3 -11 11 -25 17 -14 6 -34 26 -46 44 -12 20 -18 25 -15 12 4 -13
1 -26 -9 -34 -12 -10 -13 -15 -3 -28 11 -13 10 -14 -2 -10 -8 3 -14 14 -12 24
2 10 4 36 5 57 2 44 8 44 40 -3 14 -21 30 -34 40 -32 10 2 16 -3 15 -10 -2 -9
8 -12 32 -10 19 1 43 2 53 3 9 0 15 5 11 10 -3 5 -15 7 -27 3 -21 -6 -21 -5
-5 12 13 14 20 15 31 5 12 -9 18 -8 31 4 9 9 17 22 17 28 1 7 2 17 4 22 1 6 3
13 3 17 3 9 42 6 42 -4z m265 -10 c0 -20 26 -68 36 -68 8 0 2 -50 -7 -59 -2
-2 -12 3 -22 13 -11 9 -26 14 -34 11 -8 -3 -20 1 -27 9 -7 8 -19 12 -27 9 -9
-3 -14 0 -12 8 2 7 -5 15 -14 17 -10 2 -18 -1 -18 -7 0 -6 6 -8 14 -5 9 3 13
-2 12 -17 0 -12 -8 -24 -16 -26 -12 -4 -12 -3 -1 5 9 7 10 12 2 16 -10 7 -16
-6 -12 -28 1 -5 -6 -5 -16 -2 -14 5 -15 4 -7 -4 8 -8 18 -9 30 -3 11 5 30 8
44 6 14 -2 33 -5 42 -6 9 -1 16 -9 15 -19 -2 -22 -13 -23 -33 -4 -8 8 -25 12
-41 10 -46 -8 -66 -6 -76 8 -6 9 -7 8 -3 -5 4 -13 0 -20 -14 -24 -10 -3 -22
-13 -25 -23 -3 -10 -13 -24 -21 -31 -13 -11 -15 -10 -12 7 1 10 8 24 14 31 13
14 12 122 -2 131 -13 10 -18 46 -5 37 21 -12 37 -60 35 -102 -1 -24 1 -43 5
-43 4 0 7 27 7 59 0 33 -3 58 -8 55 -4 -3 -8 0 -8 7 0 6 8 9 19 6 14 -3 18 -1
14 9 -4 10 -10 11 -23 4 -15 -8 -18 -7 -17 9 2 26 41 24 53 -3 5 -11 16 -21
24 -21 9 0 33 -11 55 -25 22 -13 51 -25 64 -27 13 -1 28 -8 32 -15 6 -9 8 -6
7 8 -2 14 -7 20 -19 17 -22 -6 -32 12 -20 36 8 15 7 20 -5 25 -18 7 -43 -4
-43 -19 1 -18 -17 -16 -18 2 -1 11 12 25 30 35 37 19 52 18 52 -4z m-25 -33
c0 -8 -5 -15 -11 -15 -8 0 -8 -5 1 -15 15 -18 5 -20 -14 -3 -10 10 -11 17 -2
30 13 22 26 23 26 3z m-373 -23 c-10 -10 -15 -21 -12 -24 3 -3 -5 -5 -18 -5
-15 0 -23 6 -24 18 -1 15 2 17 16 10 13 -7 20 -5 30 11 7 11 15 17 18 14 4 -3
-1 -14 -10 -24z m-107 -30 c0 -4 -9 -8 -21 -9 -17 -2 -18 1 -9 12 12 14 30 12
30 -3z m700 7 c0 -5 -5 -9 -12 -9 -6 0 -9 -2 -6 -5 8 -8 39 6 33 15 -3 5 6 3
20 -3 30 -14 31 -22 7 -39 -10 -7 -24 -22 -31 -33 -7 -11 -10 -13 -8 -5 11 35
-40 62 -70 37 -19 -14 -17 8 2 23 8 6 19 9 24 5 6 -3 9 0 6 7 -4 9 2 14 15 15
11 1 20 -2 20 -8z m-222 -34 c16 6 42 -11 42 -27 0 -6 -7 -5 -16 3 -15 13 -41
19 -77 20 -15 0 -16 3 -7 14 10 12 14 12 27 -1 9 -8 22 -13 31 -9z m-440 0 c4
-4 1 -10 -6 -12 -7 -3 -19 -11 -27 -19 -8 -9 -16 -10 -20 -4 -3 5 -12 10 -18
9 -9 0 -9 -2 1 -6 19 -8 14 -22 -8 -20 -11 1 -19 6 -16 12 2 7 -9 11 -27 10
-16 0 -32 5 -34 11 -2 6 13 9 42 8 31 -2 48 2 51 11 6 14 49 14 62 0z m907 -5
c3 -6 18 -8 31 -6 16 3 24 1 22 -6 -7 -19 -47 -16 -65 4 -9 10 -11 18 -5 18 6
0 14 -5 17 -10z m-375 -24 c6 -8 18 -12 26 -9 9 3 14 0 12 -8 -2 -8 5 -13 15
-13 10 1 16 -3 15 -8 -2 -6 -17 -12 -33 -13 -17 -2 -24 -1 -17 2 8 3 4 11 -13
25 -25 19 -25 19 -50 0 -17 -14 -21 -22 -13 -25 7 -2 -11 -3 -40 -2 -44 2 -58
-2 -76 -20 -17 -17 -32 -22 -57 -20 -19 2 -28 1 -21 -2 17 -7 5 -23 -12 -17
-15 6 -14 50 1 65 6 6 15 4 24 -7 12 -16 12 -17 -3 -11 -10 3 -20 3 -22 -2 -6
-10 65 -8 82 2 9 6 9 13 2 28 -6 10 -7 20 -3 20 39 7 54 5 50 -5 -3 -7 7 -12
27 -11 21 0 30 4 28 14 -2 8 3 11 12 8 8 -3 20 1 26 9 7 8 16 14 20 14 4 0 13
-6 20 -14z m-470 -20 c0 -18 40 -57 51 -51 12 8 11 -6 -1 -25 -6 -10 -10 -11
-10 -2 0 6 -5 12 -11 12 -8 0 -7 -6 2 -17 12 -14 12 -16 -1 -11 -8 3 -15 13
-16 24 0 10 -6 29 -14 41 -11 16 -18 19 -31 12 -14 -7 -17 -5 -16 10 1 21 47
27 47 7z m48 -12 c-9 -9 -21 -13 -27 -10 -16 10 -13 26 3 20 8 -3 17 0 21 6 4
6 10 9 13 5 3 -3 -1 -13 -10 -21z m232 -3 c13 -25 -2 -36 -30 -21 -21 11 -25
22 -13 33 12 13 32 7 43 -12z m180 9 c0 -5 -4 -10 -10 -10 -5 0 -10 5 -10 10
0 6 5 10 10 10 6 0 10 -4 10 -10z m525 -32 c14 -69 16 -88 6 -88 -5 0 -8 11
-7 24 3 24 2 24 -19 8 -13 -9 -21 -20 -19 -23 2 -4 -4 -13 -13 -20 -14 -12
-15 -11 -9 9 4 12 3 22 -2 22 -4 0 -8 -19 -8 -42 1 -26 6 -43 13 -43 19 0 25
-12 9 -18 -23 -9 -44 28 -41 71 2 20 1 29 -2 19 -2 -9 -8 -15 -13 -12 -5 3 -7
12 -3 20 3 8 0 15 -7 15 -6 0 -9 -4 -6 -8 3 -5 -2 -19 -10 -31 -15 -21 -17
-21 -40 -6 -13 8 -24 12 -24 7 0 -5 11 -14 25 -20 14 -6 25 -16 25 -22 0 -6 5
-8 10 -5 6 3 10 -1 10 -9 0 -26 -16 -26 -30 -1 -11 21 -16 23 -28 12 -13 -10
-15 -9 -9 5 4 12 2 15 -8 12 -10 -4 -13 0 -10 15 2 12 7 26 10 31 3 6 1 10 -4
10 -6 0 -12 -3 -12 -7 -7 -42 -4 -59 15 -75 11 -9 16 -17 9 -18 -6 0 -15 5
-18 10 -4 7 -13 7 -26 0 -13 -7 -19 -7 -19 0 0 5 5 10 10 10 6 0 10 5 10 11 0
8 -4 8 -14 -1 -12 -9 -15 -8 -13 9 1 13 6 19 14 17 6 -3 10 1 7 7 -16 43 67
69 167 53 14 -2 32 0 40 5 11 7 10 11 -6 23 -23 18 -35 20 -35 6 0 -5 5 -9 11
-7 6 1 13 -3 15 -8 2 -6 -5 -11 -16 -12 -18 -2 -26 13 -21 40 1 5 -3 6 -8 2
-6 -3 -8 -11 -5 -18 3 -8 -10 -12 -41 -13 -37 -1 -43 2 -33 13 6 8 18 11 25 8
8 -2 24 0 36 7 27 15 48 16 64 5 16 -12 33 0 26 18 -3 8 -1 15 5 15 5 0 13
-15 17 -32z m-901 -40 c-1 -12 -3 -26 -3 -30 -1 -5 -5 -8 -9 -8 -5 0 -8 17 -8
38 1 24 -3 36 -11 35 -14 -3 -17 9 -6 21 12 12 40 -30 37 -56z m501 42 c3 -5
1 -10 -4 -10 -6 0 -11 5 -11 10 0 6 2 10 4 10 3 0 8 -4 11 -10z m222 -18 c-10
-10 -15 -21 -12 -24 3 -3 -5 -5 -18 -5 -15 0 -23 6 -24 18 -1 15 2 17 16 10
13 -7 20 -5 30 11 7 11 15 17 18 14 4 -3 -1 -14 -10 -24z m-628 -14 c8 3 11 0
7 -6 -4 -6 3 -16 15 -22 17 -10 23 -8 34 7 7 10 17 15 21 10 4 -4 18 0 31 8
25 17 43 13 43 -10 0 -21 -17 -27 -40 -15 -19 10 -25 4 -21 -22 2 -11 -13 -10
-25 2 -7 7 -10 0 -10 -25 1 -20 6 -39 11 -43 14 -10 19 -46 6 -37 -17 10 -37
58 -35 82 1 14 -6 25 -17 28 -11 4 -34 18 -52 33 -17 14 -26 19 -19 12 13 -16
16 -31 5 -29 -20 3 -34 -2 -28 -11 3 -5 1 -10 -6 -10 -7 0 -9 -3 -5 -7 4 -5
13 -1 19 7 7 8 20 16 30 18 15 3 16 0 5 -17 -6 -11 -14 -19 -17 -19 -26 2 -33
-3 -22 -16 9 -11 6 -13 -14 -13 -18 0 -23 3 -16 11 7 8 4 12 -9 12 -14 0 -16
-4 -9 -18 7 -12 19 -16 39 -14 27 3 29 1 25 -21 -2 -14 -12 -37 -22 -52 -10
-14 -19 -37 -20 -50 -1 -13 -8 -28 -15 -33 -9 -6 -8 -8 6 -6 10 2 21 -2 23 -9
3 -8 -5 -10 -24 -7 -37 7 -39 11 -19 32 9 11 14 26 11 34 -3 8 1 20 9 27 8 7
12 19 9 27 -3 9 0 14 8 12 7 -2 15 5 17 15 2 9 -1 17 -7 17 -6 0 -8 -6 -5 -14
3 -9 -2 -13 -17 -12 -12 0 -24 8 -26 16 -4 12 -3 12 5 1 7 -9 12 -10 16 -2 7
10 -6 16 -28 12 -5 -1 -5 6 -2 16 5 14 4 15 -4 7 -8 -8 -9 -18 -3 -30 5 -11 8
-30 6 -44 -2 -14 -5 -33 -6 -42 -1 -9 -9 -16 -19 -15 -22 2 -23 13 -4 33 8 8
12 25 10 41 -8 46 -6 66 8 75 9 6 8 8 -6 6 -10 -2 -21 4 -24 12 -3 8 -1 12 3
7 5 -4 19 3 32 15 13 12 23 16 23 10 0 -6 -7 -15 -17 -20 -13 -8 -11 -9 11 -9
26 0 52 27 39 41 -4 3 2 15 13 25 18 18 20 18 39 1 11 -10 26 -15 34 -12z
m-319 -8 c12 -8 12 -10 -2 -15 -14 -6 -13 -9 7 -31 14 -15 29 -22 39 -18 9 3
13 10 10 15 -3 5 0 9 5 9 14 0 14 -17 0 -25 -6 -4 -8 -13 -6 -19 3 -8 -5 -13
-23 -13 -21 0 -27 4 -23 16 4 14 3 14 -5 1 -7 -9 -7 -19 -2 -26 10 -11 4 -24
-11 -24 -9 0 -5 42 5 59 5 7 1 20 -7 29 -14 17 -20 52 -8 52 3 0 13 -4 21 -10z
m547 -16 c9 -20 9 -26 -3 -31 -8 -3 -14 -10 -14 -15 0 -6 6 -6 14 2 12 9 15 8
13 -9 -1 -12 -6 -20 -12 -17 -6 2 -11 -4 -11 -14 0 -10 6 -16 12 -13 16 6 22
22 19 51 -1 12 -1 22 1 22 12 0 34 -14 34 -22 0 -5 -4 -6 -10 -3 -5 3 -10 1
-10 -5 0 -7 6 -10 13 -7 6 2 11 12 11 21 -2 21 9 20 28 -1 28 -33 29 -42 8
-40 -15 1 -19 6 -14 22 5 18 4 18 -11 -3 -9 -12 -21 -20 -26 -17 -8 6 -13 -9
-10 -29 1 -5 -6 -5 -16 -2 -14 6 -15 4 -6 -5 13 -13 37 -3 28 12 -4 5 -1 9 4
9 15 0 14 -25 -2 -38 -10 -9 -19 -7 -35 4 -13 9 -22 11 -22 5 0 -6 4 -11 9
-11 15 0 61 -46 54 -53 -3 -4 -1 -7 6 -7 7 0 10 7 6 19 -3 10 1 23 9 30 12 11
14 8 12 -16 -3 -27 8 -43 29 -43 6 0 4 4 -3 9 -27 17 -13 91 22 112 15 9 23
20 18 23 -6 3 -12 0 -15 -6 -2 -7 -8 -10 -12 -6 -4 4 -2 16 6 25 13 16 12 17
-3 5 -15 -12 -17 -11 -15 7 2 27 24 27 32 1 3 -11 9 -20 13 -21 4 0 17 -2 29
-3 27 -3 39 -13 28 -23 -4 -5 -10 -3 -12 3 -4 13 -83 -24 -83 -39 0 -4 8 -3
18 2 11 6 24 6 33 0 17 -11 39 -12 24 -1 -20 14 -13 29 14 29 17 0 28 -6 28
-14 0 -9 -6 -12 -16 -8 -12 5 -13 3 -4 -5 7 -8 17 -9 28 -2 19 10 55 5 55 -8
0 -4 -10 -8 -22 -8 -13 -1 -39 -2 -58 -3 -20 -2 -43 0 -53 4 -31 12 -67 -19
-52 -43 7 -11 35 -1 35 12 0 6 -6 5 -15 -2 -18 -15 -20 1 -3 18 17 17 25 15
31 -8 3 -12 -1 -24 -11 -30 -11 -6 -12 -10 -4 -10 7 0 18 -11 24 -25 6 -14 15
-25 20 -25 5 0 2 10 -7 23 -8 13 -12 27 -8 30 11 12 21 7 19 -9 0 -9 5 -19 12
-21 6 -3 12 0 12 7 0 6 -4 8 -10 5 -5 -3 -10 -3 -10 2 1 12 70 54 70 43 0 -6
-9 -15 -20 -22 -11 -7 -20 -17 -20 -22 0 -4 6 -3 14 4 12 9 15 8 13 -9 -1 -12
-6 -20 -13 -17 -7 3 -10 -5 -8 -20 1 -16 -2 -24 -9 -21 -7 2 -10 13 -8 23 2
13 -6 9 -28 -16 -17 -19 -29 -40 -26 -47 2 -6 -9 -28 -26 -49 -31 -40 -34 -49
-19 -59 6 -3 7 1 4 10 -4 9 -3 15 2 14 27 -5 36 1 24 15 -9 12 -8 15 9 13 26
-2 26 -11 1 -35 -23 -21 -18 -61 5 -42 9 8 13 4 13 -15 0 -18 -4 -23 -12 -16
-8 7 -12 4 -12 -9 0 -14 4 -16 18 -9 12 7 16 19 14 40 -2 16 -6 33 -10 36 -3
4 1 17 9 30 15 22 10 29 -17 24 -12 -2 -10 7 8 34 9 13 13 29 9 35 -9 14 8 13
23 -2 15 -15 15 -29 0 -25 -6 1 -14 -6 -16 -15 -2 -10 1 -18 7 -18 6 0 8 6 5
13 -3 8 4 13 17 14 17 2 18 -1 9 -13 -9 -10 -9 -14 -1 -14 6 0 11 5 11 10 0 6
5 10 11 10 5 0 7 -4 4 -10 -10 -17 7 -11 20 7 19 25 92 33 106 11 5 -7 9 -8 9
-3 0 21 -16 32 -43 29 -24 -2 -27 0 -16 12 7 8 20 12 30 9 11 -4 19 -2 19 4 0
21 16 11 18 -11 6 -69 1 -79 -26 -54 -12 10 -26 14 -36 10 -14 -5 -15 -9 -4
-15 10 -7 10 -9 1 -9 -7 0 -13 -5 -13 -11 0 -8 6 -7 17 2 14 12 16 12 11 -1
-2 -8 -13 -15 -24 -15 -14 0 -18 6 -16 23 1 15 -2 22 -10 19 -7 -2 -12 -11
-11 -19 2 -10 -7 -14 -36 -13 -29 1 -37 -3 -34 -12 3 -8 0 -13 -8 -11 -9 2
-13 -4 -11 -17 2 -11 3 -29 3 -40 l0 -20 11 20 c6 11 16 24 22 28 7 5 3 7 -8
5 -10 -2 -21 2 -23 9 -3 7 5 10 21 9 15 -2 23 1 20 8 -3 7 5 12 16 13 19 2 28
-11 13 -20 -5 -2 -1 -2 7 1 26 8 53 4 62 -10 6 -9 8 -8 6 6 -2 10 3 21 11 24
8 3 11 0 7 -7 -5 -7 -1 -9 8 -5 13 5 11 10 -10 26 -14 11 -23 23 -20 26 3 3
14 -2 25 -12 10 -9 24 -16 31 -14 7 2 15 -3 18 -11 3 -8 0 -11 -7 -7 -6 4 -11
1 -11 -8 0 -17 -58 -67 -109 -92 -20 -11 -39 -23 -42 -28 -4 -4 -9 -3 -13 2
-4 6 2 15 11 21 17 10 17 10 1 11 -10 0 -18 5 -18 10 0 15 16 12 34 -6 9 -8
16 -11 16 -5 0 6 5 10 12 9 8 -2 12 8 12 25 -1 16 3 26 10 24 6 -2 9 -13 8
-23 -3 -15 -1 -17 9 -6 11 10 10 15 -2 27 -15 16 -49 11 -49 -6 0 -5 -5 -9
-11 -9 -5 0 -7 5 -4 10 3 6 1 10 -5 10 -7 0 -10 -6 -7 -12 2 -7 12 -12 21 -12
16 2 21 -8 9 -19 -3 -4 -16 0 -29 8 -19 12 -23 12 -28 0 -3 -8 -2 -23 1 -32 6
-16 5 -16 -10 -4 -14 11 -17 11 -18 0 -1 -8 -1 -18 0 -23 1 -5 -4 -6 -12 -3
-7 3 -14 -1 -14 -8 0 -10 5 -11 19 -4 10 6 16 15 12 21 -4 6 -1 9 6 6 8 -2 16
-11 18 -19 3 -8 1 -11 -3 -6 -5 4 -17 -1 -28 -10 -18 -17 -20 -17 -34 2 -15
20 -15 19 -8 -2 4 -14 2 -23 -4 -23 -11 0 -15 13 -12 38 1 7 -7 4 -19 -8 -12
-12 -24 -19 -27 -16 -3 3 7 16 21 29 27 25 37 49 11 27 -15 -12 -35 -6 -35 11
0 6 4 8 9 5 12 -8 41 4 41 16 0 5 -7 5 -17 -1 -11 -6 -24 -6 -35 0 -10 6 -23
7 -28 4 -6 -3 -10 -2 -10 4 0 5 6 11 12 13 9 3 8 12 -5 31 -21 32 -21 32 1 34
11 1 18 -6 20 -18 4 -42 6 -48 14 -43 4 3 8 0 8 -5 0 -6 5 -11 10 -11 6 0 3
11 -5 24 -15 23 -15 26 15 60 17 19 28 40 25 46 -4 7 4 23 16 37 13 15 18 23
10 18 -11 -6 -13 -4 -8 8 4 12 2 14 -11 10 -14 -6 -15 -4 -4 9 10 13 10 17 -1
21 -8 3 -20 1 -27 -3 -8 -5 -21 -5 -30 0 -9 5 -25 7 -36 5 -10 -2 -23 -4 -27
-4 -5 -1 -6 -5 -3 -10 3 -5 -6 -8 -19 -8 -20 0 -23 2 -14 13 6 7 19 16 30 19
15 5 16 9 7 25 -10 15 -15 17 -27 7 -12 -10 -14 -9 -8 5 4 13 2 15 -10 11 -11
-4 -14 -2 -9 5 4 7 2 12 -3 12 -6 0 -11 5 -11 11 0 5 5 7 10 4 6 -3 10 -1 10
5 0 7 -6 10 -12 7 -7 -2 -13 -13 -13 -24 0 -12 -7 -29 -16 -39 -9 -11 -17 -26
-18 -34 -3 -46 -9 -64 -24 -75 -20 -14 -22 -26 -4 -19 8 3 13 -4 14 -17 2 -17
-1 -18 -13 -9 -8 7 -14 9 -15 4 0 -5 -2 -17 -4 -28 -6 -30 5 -44 31 -41 15 1
23 -2 21 -9 -12 -36 -82 6 -70 43 3 12 1 11 -11 -4 -9 -11 -14 -25 -12 -32 6
-15 -3 -17 -22 -5 -10 7 -4 18 22 46 23 25 33 46 31 62 -1 17 2 23 13 22 8 -2
17 3 19 10 3 8 -3 11 -18 10 -12 -2 -24 2 -26 8 -2 7 6 10 22 9 14 -2 26 2 27
8 0 7 2 17 2 24 1 6 10 20 20 31 10 12 15 25 12 30 -7 12 23 54 35 47 5 -4 9
-1 9 4 0 6 -10 10 -22 8 -18 -1 -23 3 -23 20 -1 29 -10 38 -12 11 -1 -12 -8
-25 -15 -30 -9 -6 -8 -8 6 -6 10 2 21 -3 24 -11 3 -8 0 -11 -7 -7 -7 5 -9 1
-5 -11 4 -12 -3 -8 -19 10 -23 25 -26 26 -24 9 0 -12 5 -18 9 -16 4 3 8 1 8
-5 0 -16 -17 -22 -28 -8 -5 6 -8 22 -7 34 1 17 -2 20 -10 13 -9 -8 -12 -4 -12
15 0 20 2 23 13 14 13 -11 19 -2 15 23 -1 9 50 5 67 -6 15 -9 34 2 26 15 -6
10 13 39 25 39 3 0 11 -12 18 -26z m225 0 c-2 -11 1 -15 5 -9 15 19 52 35 58
25 8 -14 -4 -32 -16 -24 -6 3 -19 -2 -30 -12 -22 -20 -26 -18 -33 19 -3 19 -1
27 7 24 7 -2 11 -13 9 -23z m113 1 c-3 -29 -12 -42 -22 -31 -4 4 -2 11 6 15
10 6 8 10 -5 15 -16 6 -16 8 -4 16 23 15 28 12 25 -15z m-845 5 c0 -5 -4 -10
-10 -10 -5 0 -10 5 -10 10 0 6 5 10 10 10 6 0 10 -4 10 -10z m590 -2 c0 -17
-40 -29 -60 -18 -31 17 -24 25 20 25 22 0 40 -3 40 -7z m227 -60 c2 -29 3 -62
3 -72 1 -11 -5 -23 -12 -29 -10 -6 -8 -7 4 -3 12 3 23 -4 35 -24 13 -22 20
-27 30 -18 14 12 16 8 7 -16 -3 -9 -10 -13 -15 -10 -5 3 -9 0 -9 -5 0 -13 3
-13 24 -5 9 3 14 10 11 14 -2 4 6 8 20 8 14 0 22 -4 19 -9 -7 -13 -67 -44 -78
-41 -12 4 -47 -29 -41 -38 3 -4 -6 -7 -18 -7 -15 0 -23 6 -24 18 -2 16 2 17
18 9 18 -10 24 -3 20 23 -1 4 6 7 16 5 22 -4 29 50 7 59 -7 3 -11 10 -7 16 3
5 1 7 -4 4 -6 -4 -21 2 -34 12 -23 18 -24 18 -50 -1 -15 -11 -32 -17 -38 -13
-7 4 -20 1 -29 -6 -14 -11 -15 -11 -5 0 6 7 9 19 7 25 -3 7 10 12 33 14 101 5
101 5 95 41 -1 4 -17 7 -34 5 -21 -2 -28 -1 -20 5 11 6 10 10 -4 15 -16 6 -16
8 -4 16 18 12 30 13 29 3 -4 -22 3 -32 16 -27 8 4 15 10 15 15 0 4 -6 6 -13 3
-19 -7 -18 27 1 49 23 26 27 21 29 -35z m-523 26 c9 -8 14 -20 11 -25 -3 -4 1
-22 10 -38 8 -17 14 -36 13 -43 -4 -18 -36 -40 -48 -33 -15 9 -12 25 4 19 8
-3 17 0 21 7 5 7 3 10 -6 7 -8 -3 -22 -1 -33 4 -12 7 -22 6 -30 -2 -8 -8 -7
-10 4 -6 14 5 24 -8 46 -59 2 -6 -5 -11 -16 -11 -13 0 -18 5 -15 16 6 18 -5
34 -25 38 -11 2 -11 -1 3 -11 21 -17 22 -27 2 -27 -8 0 -15 5 -15 11 0 5 -5 7
-11 3 -8 -4 -2 -12 16 -22 21 -11 25 -16 14 -23 -8 -5 -15 -4 -17 1 -2 6 -8
10 -14 10 -6 0 -4 -7 3 -17 12 -14 12 -16 -1 -11 -15 5 -25 68 -10 68 4 0 13
14 20 30 7 17 16 30 21 30 5 0 9 5 9 11 0 5 -5 7 -11 3 -8 -5 -8 -1 0 14 18
34 30 35 26 3 -2 -20 2 -31 12 -35 9 -4 18 -4 21 -1 3 3 1 5 -5 5 -15 0 -22
34 -11 55 7 11 6 21 -2 28 -8 9 -9 7 -4 -8 7 -18 6 -18 -9 -6 -16 13 -15 31 3
31 5 0 16 -7 24 -16z m781 6 c-3 -6 0 -13 8 -16 20 -7 11 -64 -11 -80 -10 -7
-18 -11 -20 -10 -5 6 10 36 17 32 4 -3 8 6 9 19 1 13 -2 26 -6 29 -5 3 -8 -5
-8 -17 1 -16 -5 -22 -21 -23 -28 -2 -29 10 -3 36 11 11 20 25 20 30 0 6 5 10
11 10 5 0 7 -5 4 -10z m-996 -17 c-9 -10 -14 -11 -20 -2 -4 6 -6 -1 -5 -17 2
-43 13 -56 37 -44 10 6 20 7 20 3 7 -41 5 -54 -7 -49 -7 3 -11 0 -8 -7 2 -7
-2 -21 -11 -32 -14 -19 -15 -17 -10 23 3 23 1 42 -4 42 -5 0 -19 13 -31 30
-17 24 -19 32 -9 48 7 11 23 20 36 20 19 0 21 -3 12 -15z m28 -19 c4 -11 -1
-22 -12 -30 -25 -18 -40 -3 -26 25 14 25 29 27 38 5z m143 1 c-7 -8 -16 -12
-21 -9 -16 9 -10 20 12 21 17 2 18 -1 9 -12z m735 -7 c0 -26 28 -69 42 -64 7
3 15 1 19 -5 4 -6 11 -6 20 2 21 17 17 -2 -9 -52 -24 -45 -54 -60 -49 -24 2
12 0 16 -5 9 -16 -21 -42 -23 -67 -3 -21 17 -24 24 -16 40 6 11 8 24 5 29 -7
12 5 13 23 1 10 -6 10 -10 -3 -21 -20 -17 -19 -27 6 -41 26 -14 50 4 31 23 -8
8 -15 8 -27 -2 -17 -14 -21 0 -4 17 12 12 40 6 51 -11 4 -6 6 -1 6 10 -2 14
-7 20 -19 17 -22 -6 -32 12 -19 36 8 16 6 21 -11 26 -16 5 -18 9 -8 21 15 18
34 13 34 -8z m-975 -43 c7 -13 17 -22 23 -18 5 3 2 10 -7 15 -9 5 -14 14 -10
19 3 6 12 2 21 -10 8 -12 11 -25 8 -31 -3 -5 0 -7 8 -4 10 3 13 -5 13 -33 -1
-35 1 -38 27 -37 17 1 26 -3 24 -10 -3 -6 2 -19 11 -28 14 -16 14 -20 0 -35
-9 -10 -13 -24 -11 -31 3 -7 -1 -11 -8 -10 -7 2 -15 -5 -17 -14 -2 -10 1 -18
7 -18 6 0 8 6 5 13 -3 8 4 13 17 14 19 2 20 0 6 -20 -11 -17 -24 -22 -51 -21
-20 1 -36 0 -34 -1 15 -12 49 -25 44 -16 -13 21 13 11 28 -11 9 -12 16 -18 16
-12 0 5 -5 15 -12 22 -7 7 -8 12 -2 12 17 0 33 -22 27 -36 -3 -8 -1 -14 4 -14
16 0 11 34 -6 47 -24 17 -8 25 17 7 11 -8 19 -21 16 -28 -3 -8 0 -17 6 -21 9
-6 9 -10 -1 -16 -13 -8 -68 15 -80 33 -3 5 -8 8 -11 6 -10 -7 -108 46 -108 59
0 7 5 13 10 13 6 0 10 -7 10 -15 0 -8 4 -15 8 -15 14 0 10 29 -5 34 -19 8 -44
-4 -37 -18 4 -6 -1 -3 -12 6 -15 15 -16 20 -5 30 12 11 13 10 8 -5 -4 -11 -3
-16 4 -12 6 4 8 14 5 22 -7 16 -3 15 46 -9 19 -9 26 -18 22 -30 -3 -10 -1 -18
4 -18 6 0 8 12 6 28 -8 50 -8 87 -1 106 11 28 -17 54 -56 52 -20 -2 -31 -7
-29 -15 2 -8 -3 -11 -12 -8 -8 3 -20 -1 -26 -9 -9 -10 -9 -14 -1 -14 6 0 10
-3 10 -7 -5 -28 2 -33 24 -18 23 14 37 12 37 -7 0 -5 -5 -6 -11 -3 -5 4 -19
-1 -29 -10 -18 -16 -20 -16 -26 -1 -3 9 -10 13 -16 10 -5 -3 -1 -12 9 -20 10
-7 13 -14 7 -14 -6 0 -17 7 -24 15 -10 12 -10 18 0 30 11 13 10 14 -6 8 -16
-6 -15 -2 5 26 19 26 21 35 11 44 -10 10 -12 8 -7 -6 4 -11 1 -20 -8 -23 -8
-4 -12 -10 -9 -15 3 -5 0 -9 -6 -9 -10 0 -7 40 5 60 3 5 0 7 -8 4 -19 -7 -18
27 1 39 19 13 64 19 58 8 -3 -5 0 -14 7 -20 11 -8 17 -5 27 14 17 31 23 31 40
0z m588 -2 c0 -12 -4 -21 -8 -18 -4 3 -13 -2 -20 -10 -7 -8 -18 -15 -24 -15
-6 1 -1 9 10 19 16 12 19 22 13 34 -7 12 -5 15 10 14 12 -1 19 -9 19 -24z
m327 8 c3 -5 1 -12 -5 -16 -6 -4 -8 -11 -4 -16 3 -5 0 -16 -6 -24 -10 -12 -10
-18 0 -30 7 -9 11 -18 8 -20 -9 -9 -31 25 -34 50 -1 13 4 29 12 36 7 6 11 15
8 20 -3 5 -1 9 5 9 5 0 12 -4 16 -9z m-49 -30 c-4 -5 -14 -7 -23 -4 -11 4 -14
3 -9 -5 4 -7 13 -12 21 -12 8 0 13 -9 12 -20 -1 -11 -5 -19 -10 -17 -5 1 -8 6
-7 11 1 5 -5 13 -14 18 -21 12 -20 35 2 47 19 11 38 -1 28 -18z m-712 -28 c-8
-9 -13 -22 -9 -31 6 -16 -11 -42 -27 -42 -6 0 -5 7 3 16 13 15 19 41 20 77 0
15 3 16 14 7 12 -10 12 -14 -1 -27z m261 16 c0 -8 -10 -15 -22 -15 -13 -1 -23
2 -23 7 0 5 -16 -1 -35 -12 -40 -24 -42 -28 -17 -27 9 0 26 -3 37 -7 11 -4 16
-3 10 2 -17 14 -15 32 4 30 12 -1 19 -9 19 -23 0 -25 -27 -36 -52 -22 -14 8
-24 4 -45 -16 -17 -16 -34 -24 -43 -21 -9 4 -19 2 -23 -4 -4 -7 0 -8 10 -5 9
4 15 3 14 -2 -1 -5 -1 -15 0 -23 1 -11 4 -11 18 0 15 12 16 12 10 -3 -4 -12
-2 -15 8 -12 11 4 13 -1 9 -22 -3 -16 -11 -32 -17 -36 -9 -6 -9 -8 0 -8 32 0
39 66 10 91 -12 10 -17 18 -12 19 6 0 17 -6 24 -12 11 -11 12 -10 6 1 -6 11
-4 13 8 8 11 -4 14 -2 10 9 -4 11 -9 12 -19 3 -17 -14 -19 2 -2 19 17 17 25
15 33 -10 14 -44 13 -79 -2 -74 -8 3 -11 1 -8 -4 11 -17 -35 -68 -56 -63 -13
4 -18 11 -14 23 7 21 -7 33 -27 25 -16 -6 -21 -42 -7 -51 5 -3 9 -2 8 3 -1 4
-1 16 0 26 2 25 19 21 19 -5 1 -13 2 -41 3 -62 2 -24 -2 -41 -9 -44 -7 -2 -10
2 -6 11 3 10 -3 20 -15 27 -12 6 -21 15 -21 21 0 6 7 6 20 -1 11 -6 20 -7 20
-3 0 5 -10 13 -22 18 -16 7 -22 18 -21 33 2 12 -2 22 -8 22 -5 0 -7 -4 -4 -10
3 -5 1 -10 -6 -10 -8 0 -6 -6 4 -18 11 -12 13 -22 7 -28 -7 -7 -2 -15 15 -24
14 -7 25 -17 25 -22 0 -12 -14 -10 -28 4 -8 8 -12 8 -12 1 0 -6 14 -17 32 -24
18 -7 48 -27 67 -44 20 -16 30 -23 24 -14 -12 15 -8 29 9 29 4 0 7 -6 5 -12
-2 -12 3 -13 60 -4 27 4 48 -17 39 -39 -3 -9 -2 -13 4 -10 6 3 10 2 10 -4 0
-5 -9 -9 -20 -8 -22 1 -26 12 -10 22 6 4 8 10 5 14 -6 11 -54 11 -61 0 -3 -5
3 -6 12 -2 13 5 15 3 9 -8 -8 -12 -6 -12 8 0 10 8 20 12 22 9 3 -3 0 -10 -7
-16 -16 -13 -70 -4 -61 11 4 6 0 8 -10 4 -9 -3 -23 0 -31 8 -8 8 -19 15 -25
15 -6 0 -11 4 -11 8 0 5 -20 19 -45 32 -34 17 -42 26 -34 36 7 8 7 14 -1 19
-6 4 -9 13 -6 21 5 14 -14 39 -36 47 -7 2 -9 8 -5 13 4 5 12 2 16 -5 6 -8 11
-9 15 -3 3 6 -2 13 -13 17 -11 3 -24 12 -31 20 -9 11 -8 14 9 12 11 -1 23 -7
25 -14 5 -13 60 -12 73 1 4 3 17 -1 30 -9 13 -9 23 -11 23 -5 0 5 -4 10 -10
10 -5 0 -19 9 -30 20 -22 22 -58 17 -40 -5 8 -9 4 -12 -15 -12 -19 0 -23 3
-15 12 8 9 4 12 -15 9 -17 -1 -25 2 -22 9 2 7 16 11 31 11 17 -1 38 9 58 28
17 16 37 27 44 24 7 -3 18 2 24 10 10 11 10 14 -1 14 -9 1 -4 9 11 22 14 11
24 24 23 29 -2 5 11 7 27 5 17 -2 33 1 36 6 8 13 29 4 29 -13z m78 -37 c2 8 8
9 13 4 5 -5 3 -11 -5 -14 -7 -2 -23 -15 -34 -28 -11 -13 -25 -24 -31 -24 -5 0
1 11 14 25 13 14 19 25 14 25 -5 0 -10 10 -11 23 l-2 22 19 -23 c12 -15 20
-18 23 -10z m-472 -9 c7 -7 8 -17 1 -29 -5 -11 -9 -34 -7 -52 1 -20 -2 -31 -9
-29 -16 5 -15 59 1 78 11 14 11 18 -2 29 -11 9 -15 9 -15 1 0 -7 -4 -10 -8 -7
-5 3 -16 -4 -25 -15 -22 -25 -32 -24 -34 2 -2 17 1 18 13 9 13 -12 19 -4 16
21 -2 11 57 4 69 -8z m426 -2 c1 -11 -5 -25 -13 -32 -11 -9 -11 -15 -3 -25 9
-11 7 -15 -5 -20 -15 -6 -14 -9 6 -23 13 -9 26 -15 31 -13 10 3 9 -16 -2 -22
-5 -3 -14 1 -21 9 -6 7 -17 12 -24 9 -9 -3 -13 3 -11 18 1 13 3 23 5 23 1 0 4
11 6 25 5 27 12 63 13 68 4 10 17 -2 18 -17z m344 8 c13 -6 18 -16 15 -26 -5
-13 -4 -13 8 -4 11 9 14 7 14 -14 0 -20 -3 -23 -14 -14 -13 11 -19 2 -15 -23
2 -13 -26 -9 -36 5 -8 9 -10 66 -4 85 2 5 13 2 32 -9z m179 1 c0 -5 -4 -10
-10 -10 -5 0 -10 5 -10 10 0 6 5 10 10 10 6 0 10 -4 10 -10z m-970 -35 c-7 -8
-16 -12 -21 -9 -16 9 -10 20 12 21 17 2 18 -1 9 -12z m574 -13 c3 -9 9 -24 12
-32 3 -8 -3 -5 -14 6 -14 16 -23 19 -35 12 -18 -10 -20 -7 -12 14 8 20 42 20
49 0z m44 -8 c-9 -9 -21 -13 -27 -10 -16 10 -13 26 3 20 8 -3 17 0 21 6 4 6
10 9 13 5 3 -3 -1 -13 -10 -21z m379 4 c13 -10 -11 -68 -29 -68 -7 0 -7 4 0
13 7 8 5 18 -8 34 -9 12 -20 20 -23 16 -4 -3 4 -14 16 -25 21 -18 21 -18 2
-16 -11 2 -25 9 -31 17 -9 11 -11 11 -11 -3 0 -9 4 -16 9 -16 17 0 23 -3 34
-18 9 -12 7 -20 -7 -36 -11 -11 -19 -24 -19 -30 0 -5 -6 -4 -12 2 -16 16 -18
64 -3 59 5 -3 9 -15 7 -28 -2 -23 -2 -23 12 -4 12 17 12 21 -3 32 -9 7 -21 13
-28 13 -18 0 -11 39 9 46 10 3 18 9 18 13 0 12 52 11 67 -1z m-513 -29 c-3 -5
0 -9 6 -9 7 0 9 8 4 22 -6 20 -5 21 9 9 9 -7 14 -17 11 -22 -5 -8 10 -13 30
-10 5 1 5 -6 2 -16 -6 -14 -4 -15 5 -6 13 13 3 37 -12 28 -5 -4 -9 -1 -9 4 0
14 23 14 37 0 12 -12 6 -39 -11 -52 -7 -5 -3 -7 8 -5 10 2 21 -3 24 -11 3 -9
0 -11 -8 -6 -9 6 -11 4 -6 -4 6 -9 12 -8 26 4 19 17 17 45 -2 45 -6 0 -4 -7 3
-17 12 -14 12 -16 -1 -11 -24 8 -19 43 6 44 18 1 21 -4 20 -28 -1 -17 -8 -35
-17 -41 -8 -7 -21 -21 -27 -32 -8 -13 -12 -14 -11 -5 3 20 -11 50 -22 50 -4 0
-6 -6 -3 -13 3 -8 -4 -13 -17 -14 -17 -2 -18 1 -9 13 7 8 8 14 4 14 -5 0 -15
-9 -22 -20 -9 -15 -20 -19 -40 -15 -15 2 -33 1 -41 -4 -21 -13 -50 -1 -48 20
1 11 6 17 12 15 5 -2 9 -9 8 -15 -2 -6 2 -11 8 -11 6 0 9 6 6 14 -9 22 15 37
31 20 7 -8 10 -14 6 -14 -4 0 -5 -3 -1 -6 3 -3 14 3 25 14 13 13 17 23 10 30
-6 6 0 10 16 10 19 0 24 -4 17 -12 -7 -8 -4 -12 9 -12 14 0 16 4 10 17 -10 17
-56 23 -66 8 -3 -5 -11 -3 -18 3 -19 18 10 64 30 47 8 -6 11 -15 8 -20z m156
7 c9 -12 8 -15 -9 -13 -21 1 -26 8 -14 20 9 9 9 9 23 -7z m-650 -8 c0 -4 -4
-10 -10 -13 -5 -3 -10 -1 -10 6 0 7 -13 0 -30 -16 -34 -33 -41 -23 -9 11 20
21 59 29 59 12z m765 3 c3 -5 -5 -17 -17 -26 -21 -15 -21 -16 -3 -11 16 5 21
1 22 -14 2 -23 -8 -19 -44 13 -25 22 -32 47 -8 27 15 -13 39 -5 30 11 -4 5 -2
9 4 9 5 0 12 -4 16 -9z m-530 -31 c3 -5 1 -10 -4 -10 -6 0 -11 5 -11 10 0 6 2
10 4 10 3 0 8 -4 11 -10z m315 -136 c-15 -17 -4 -35 15 -27 9 3 15 -1 15 -10
0 -8 7 -20 15 -27 13 -11 13 -14 -2 -25 -10 -8 -14 -17 -10 -22 12 -11 30 -11
40 2 5 6 7 4 5 -4 -5 -18 -39 -28 -88 -27 -31 1 -35 4 -37 29 -1 23 1 26 11
18 17 -14 29 10 19 36 -5 12 -3 14 8 8 8 -5 7 0 -4 12 -10 11 -15 27 -11 37 3
9 1 16 -6 16 -6 0 -9 -4 -6 -9 3 -5 -1 -12 -10 -15 -24 -9 -26 -3 -8 22 9 13
21 19 32 16 13 -5 14 -4 3 4 -8 6 -21 7 -30 4 -14 -5 -14 -4 -1 12 13 17 15
17 37 -9 18 -21 21 -30 13 -41z m-195 21 c2 -14 -1 -25 -5 -25 -14 0 -21 18
-11 25 6 3 7 13 4 23 -3 9 -3 14 2 10 4 -4 9 -19 10 -33z m130 16 c3 -7 -1
-24 -9 -36 -8 -12 -13 -34 -12 -49 2 -16 -1 -25 -8 -23 -6 2 -10 11 -10 20 1
8 -4 13 -10 11 -6 -2 -12 5 -13 16 -1 11 2 20 8 20 5 0 9 -5 9 -12 0 -6 2 -9
5 -6 3 3 3 13 -1 22 -5 13 -9 14 -20 5 -18 -15 -10 -57 13 -75 32 -24 43 -17
38 22 -3 28 -2 34 8 26 13 -11 16 -116 4 -128 -7 -7 -11 17 -8 46 2 13 0 13
-8 1 -5 -8 -7 -21 -4 -30 3 -11 1 -11 -7 2 -7 10 -9 21 -6 24 9 9 -37 41 -51
36 -9 -4 -11 0 -7 13 6 16 3 15 -15 -3 -21 -23 -48 -32 -36 -14 9 16 -15 24
-30 11 -10 -8 -15 -9 -15 -2 0 6 -9 14 -20 17 -11 4 -17 11 -14 17 4 6 10 5
16 -3 7 -10 8 -8 3 6 -12 34 -13 76 -1 72 6 -2 11 -12 12 -23 2 -39 4 -45 14
-39 14 9 12 -8 -2 -25 -11 -12 -10 -12 3 -2 12 9 20 8 37 -4 22 -15 28 -9 23
20 -1 5 5 6 14 3 8 -4 15 -2 15 2 0 5 -7 11 -15 15 -13 5 -20 -5 -16 -26 2
-15 -17 -8 -43 17 -15 14 -24 30 -20 36 4 7 13 1 24 -15 14 -22 19 -24 28 -13
7 8 9 17 6 20 -4 3 9 5 27 4 26 -2 36 3 44 20 10 24 41 27 50 4z m185 -31 c0
-5 -4 -10 -10 -10 -5 0 -10 5 -10 10 0 6 5 10 10 10 6 0 10 -4 10 -10z m-150
-55 c-8 -9 -7 -14 2 -18 7 -2 10 -8 6 -12 -12 -12 -20 0 -24 36 -3 27 -2 30
11 19 11 -9 12 -16 5 -25z"/>
<path d="M3669 3338 c-1 -7 0 -17 1 -23 1 -5 3 -15 3 -22 0 -7 4 -10 8 -8 4 3
9 -1 12 -9 3 -7 18 -13 32 -13 17 0 23 2 14 7 -6 5 -19 5 -28 2 -14 -5 -14 -4
-2 11 12 15 12 17 -2 11 -10 -3 -20 2 -27 15 -7 14 -7 21 0 21 5 0 10 5 10 10
0 15 -20 12 -21 -2z"/>
<path d="M3832 3080 c-8 -13 -9 -27 -4 -38 5 -9 7 -23 5 -29 -3 -7 -1 -13 4
-13 5 0 9 23 9 50 1 28 1 50 0 50 -1 0 -7 -9 -14 -20z"/>
<path d="M3522 3164 c-9 -18 -9 -23 -1 -18 7 4 10 1 7 -7 -3 -8 -14 -12 -24
-11 -15 3 -17 1 -6 -9 17 -18 36 3 38 41 2 37 0 37 -14 4z"/>
<path d="M3385 2920 c-3 -5 -1 -10 4 -10 6 0 11 5 11 10 0 6 -2 10 -4 10 -3 0
-8 -4 -11 -10z"/>
<path d="M3410 2830 c0 -5 5 -10 11 -10 5 0 7 5 4 10 -3 6 -8 10 -11 10 -2 0
-4 -4 -4 -10z"/>
<path d="M3550 2659 c0 -5 5 -7 10 -4 6 3 10 8 10 11 0 2 -4 4 -10 4 -5 0 -10
-5 -10 -11z"/>
<path d="M3450 3005 c0 -8 2 -15 4 -15 2 0 6 7 10 15 3 8 1 15 -4 15 -6 0 -10
-7 -10 -15z"/>
<path d="M3510 3009 c0 -5 5 -7 10 -4 6 3 10 1 10 -5 0 -6 5 -8 11 -4 8 4 7 9
-2 15 -19 12 -29 11 -29 -2z"/>
<path d="M3630 3059 c0 -5 5 -7 10 -4 6 3 10 8 10 11 0 2 -4 4 -10 4 -5 0 -10
-5 -10 -11z"/>
<path d="M3910 3060 c0 -5 5 -10 11 -10 5 0 7 5 4 10 -3 6 -8 10 -11 10 -2 0
-4 -4 -4 -10z"/>
<path d="M3910 3030 c0 -5 5 -10 10 -10 6 0 10 5 10 10 0 6 -4 10 -10 10 -5 0
-10 -4 -10 -10z"/>
<path d="M3902 3001 c-11 -7 -10 -10 3 -15 20 -7 38 1 30 15 -7 11 -16 11 -33
0z"/>
<path d="M3597 2956 c-5 -12 -3 -15 5 -10 8 5 9 1 4 -12 -5 -14 -4 -16 4 -7 8
7 9 17 3 28 -9 16 -10 16 -16 1z"/>
<path d="M3834 2750 c-1 -46 0 -49 13 -30 9 13 11 25 5 37 -5 10 -7 24 -5 31
3 6 1 12 -4 12 -5 0 -9 -23 -9 -50z"/>
<path d="M3755 2710 c3 -5 8 -10 11 -10 2 0 4 5 4 10 0 6 -5 10 -11 10 -5 0
-7 -4 -4 -10z"/>
<path d="M3790 2819 c0 -5 5 -7 10 -4 6 3 10 8 10 11 0 2 -4 4 -10 4 -5 0 -10
-5 -10 -11z"/>
<path d="M3886 2781 c-4 -6 -2 -11 4 -11 6 0 8 -4 5 -10 -3 -5 -1 -10 4 -10
13 0 14 10 2 29 -6 9 -11 10 -15 2z"/>
<path d="M4113 2756 c3 -7 -1 -23 -9 -35 -15 -21 -9 -27 20 -22 5 1 6 -5 3
-13 -3 -8 1 -20 8 -26 8 -7 13 -21 12 -32 -1 -12 4 -23 11 -25 6 -3 12 0 12 7
0 6 -4 8 -10 5 -5 -3 -10 -2 -10 4 0 5 6 12 13 15 10 5 10 7 0 12 -7 3 -13 10
-13 15 0 6 5 7 10 4 6 -3 10 -1 10 5 0 7 -8 9 -22 4 -20 -6 -21 -5 -9 9 7 9
17 14 22 11 5 -3 9 -1 9 5 0 5 -13 8 -30 6 -36 -4 -38 7 -7 35 19 18 19 20 3
14 -14 -5 -17 -4 -12 4 4 7 2 12 -4 12 -7 0 -10 -6 -7 -14z"/>
<path d="M4141 2731 c-9 -6 -10 -11 -2 -15 6 -4 11 -2 11 4 0 6 5 8 12 4 7 -4
8 -3 4 4 -8 14 -7 14 -25 3z"/>
<path d="M4184 2626 c2 -26 5 -49 8 -52 3 -3 5 16 3 41 -1 25 -4 48 -7 51 -3
3 -5 -15 -4 -40z"/>
<path d="M3195 2719 c-4 -6 -5 -12 -2 -15 2 -3 7 2 10 11 7 17 1 20 -8 4z"/>
<path d="M3917 2616 c-3 -8 -2 -18 4 -22 16 -9 22 2 11 21 -8 15 -10 16 -15 1z"/>
<path d="M3850 2599 c0 -5 5 -7 10 -4 6 3 10 8 10 11 0 2 -4 4 -10 4 -5 0 -10
-5 -10 -11z"/>
<path d="M4086 2534 c-3 -9 -2 -22 2 -31 6 -10 9 -5 9 16 0 35 -2 38 -11 15z"/>
<path d="M3690 2581 c0 -7 -4 -9 -10 -6 -6 4 -7 -1 -3 -11 6 -15 7 -15 15 1 6
9 7 19 4 22 -3 4 -6 1 -6 -6z"/>
<path d="M3770 2550 c0 -5 5 -10 11 -10 5 0 7 5 4 10 -3 6 -8 10 -11 10 -2 0
-4 -4 -4 -10z"/>
<path d="M3770 2480 c0 -5 5 -10 11 -10 5 0 7 5 4 10 -3 6 -8 10 -11 10 -2 0
-4 -4 -4 -10z"/>
<path d="M3850 2440 c0 -5 5 -10 11 -10 5 0 7 5 4 10 -3 6 -8 10 -11 10 -2 0
-4 -4 -4 -10z"/>
<path d="M4180 2420 c0 -5 5 -10 11 -10 5 0 7 5 4 10 -3 6 -8 10 -11 10 -2 0
-4 -4 -4 -10z"/>
<path d="M4224 2326 c-19 -14 -18 -15 3 -13 12 0 19 5 16 11 -4 5 1 7 11 3 10
-4 15 -3 11 3 -8 14 -18 13 -41 -4z"/>
<path d="M3117 2476 c-4 -10 -3 -15 3 -11 6 3 10 1 10 -6 0 -7 3 -10 6 -6 3 3
2 13 -4 22 -8 16 -9 16 -15 1z"/>
<path d="M3104 2442 c3 -5 -1 -15 -9 -22 -11 -9 -12 -17 -4 -32 6 -11 13 -17
16 -14 3 3 0 12 -7 21 -8 9 -8 15 -2 15 6 0 14 -5 18 -11 4 -8 9 -7 15 2 13
21 11 27 -12 40 -12 6 -19 7 -15 1z m26 -22 c0 -5 -4 -10 -10 -10 -5 0 -10 5
-10 10 0 6 5 10 10 10 6 0 10 -4 10 -10z"/>
<path d="M3394 2396 c1 -18 -5 -21 -36 -21 -20 0 -40 -4 -45 -8 -8 -8 15 -27
32 -26 6 0 4 3 -2 6 -19 7 -15 24 5 21 19 -3 62 -44 62 -59 0 -5 5 -9 11 -9 6
0 4 8 -4 20 -16 24 -13 80 5 91 8 5 5 8 -8 7 -13 -1 -20 -9 -20 -22z"/>
<path d="M3370 2400 c0 -5 5 -10 11 -10 5 0 7 5 4 10 -3 6 -8 10 -11 10 -2 0
-4 -4 -4 -10z"/>
<path d="M3427 2393 c-9 -17 -1 -67 11 -71 6 -2 12 1 12 8 0 6 -4 8 -10 5 -5
-3 -10 -2 -10 4 0 5 6 12 13 15 10 5 10 7 0 12 -7 3 -13 10 -13 15 0 6 5 7 10
4 6 -3 10 -1 10 4 0 13 -17 15 -23 4z"/>
<path d="M3280 2360 c0 -5 5 -10 10 -10 6 0 10 5 10 10 0 6 -4 10 -10 10 -5 0
-10 -4 -10 -10z"/>
<path d="M3113 2199 c21 -12 22 -29 1 -29 -9 0 -12 5 -8 13 4 6 3 8 -1 4 -5
-4 -10 -14 -11 -22 -3 -18 34 -15 41 3 6 16 -12 42 -29 42 -6 0 -3 -5 7 -11z"/>
<path d="M3553 2433 c-7 -3 -13 -9 -13 -15 0 -7 5 -6 14 2 12 9 15 8 13 -9 -1
-12 -6 -20 -12 -17 -6 2 -11 -4 -11 -14 0 -16 25 -17 27 -1 0 3 2 16 5 28 4
24 -4 33 -23 26z"/>
<path d="M3710 2419 c0 -5 5 -7 10 -4 6 3 10 8 10 11 0 2 -4 4 -10 4 -5 0 -10
-5 -10 -11z"/>
<path d="M3930 2369 c0 -5 -5 -7 -12 -3 -7 4 -8 3 -4 -5 6 -9 11 -9 22 0 17
14 18 19 4 19 -5 0 -10 -5 -10 -11z"/>
<path d="M3610 2310 c0 -5 5 -10 11 -10 5 0 7 5 4 10 -3 6 -8 10 -11 10 -2 0
-4 -4 -4 -10z"/>
<path d="M3555 2300 c-3 -5 -1 -10 4 -10 6 0 11 5 11 10 0 6 -2 10 -4 10 -3 0
-8 -4 -11 -10z"/>
<path d="M4275 2260 c3 -5 8 -10 11 -10 2 0 4 5 4 10 0 6 -5 10 -11 10 -5 0
-7 -4 -4 -10z"/>
<path d="M4122 2211 c-10 -6 -10 -10 3 -21 18 -15 42 0 31 19 -8 13 -16 14
-34 2z m28 -11 c0 -5 -4 -10 -10 -10 -5 0 -10 5 -10 10 0 6 5 10 10 10 6 0 10
-4 10 -10z"/>
<path d="M3610 2240 c0 -5 5 -10 11 -10 5 0 7 5 4 10 -3 6 -8 10 -11 10 -2 0
-4 -4 -4 -10z"/>
<path d="M3686 2221 c-3 -5 1 -11 9 -14 9 -4 12 -1 8 9 -6 16 -10 17 -17 5z"/>
<path d="M3606 2186 c5 -13 4 -17 -4 -12 -7 4 -12 2 -12 -3 0 -14 17 -14 26 0
3 6 1 16 -5 22 -9 9 -10 7 -5 -7z"/>
<path d="M3676 2192 c-2 -4 -1 -14 4 -22 7 -11 9 -9 7 8 -1 24 -3 26 -11 14z"/>
<path d="M3655 2160 c3 -5 8 -10 11 -10 2 0 4 5 4 10 0 6 -5 10 -11 10 -5 0
-7 -4 -4 -10z"/>
<path d="M4076 1814 c-23 -23 -20 -30 4 -9 11 10 20 20 20 22 0 7 -9 2 -24
-13z"/>
<path d="M3995 2180 c3 -5 8 -10 11 -10 2 0 4 5 4 10 0 6 -5 10 -11 10 -5 0
-7 -4 -4 -10z"/>
<path d="M3500 2141 c0 -6 4 -13 10 -16 6 -3 7 1 4 9 -7 18 -14 21 -14 7z"/>
<path d="M4250 2160 c0 -5 5 -10 11 -10 5 0 7 5 4 10 -3 6 -8 10 -11 10 -2 0
-4 -4 -4 -10z"/>
<path d="M3300 2099 c0 -5 5 -7 10 -4 6 3 10 8 10 11 0 2 -4 4 -10 4 -5 0 -10
-5 -10 -11z"/>
<path d="M3290 2160 c0 -5 5 -10 11 -10 5 0 7 5 4 10 -3 6 -8 10 -11 10 -2 0
-4 -4 -4 -10z"/>
<path d="M4190 2099 c0 -5 5 -7 10 -4 6 3 10 8 10 11 0 2 -4 4 -10 4 -5 0 -10
-5 -10 -11z"/>
<path d="M4241 2069 c10 -6 11 -9 1 -9 -7 0 -11 -11 -10 -29 1 -16 6 -27 11
-24 4 3 6 12 2 21 -4 10 2 22 14 32 21 15 20 15 -6 17 -19 1 -22 -1 -12 -8z"/>
<path d="M3123 2103 c-7 -3 -13 -9 -13 -14 0 -4 7 -6 15 -2 9 3 15 2 14 -3 -5
-29 1 -34 24 -21 26 16 61 15 82 -3 10 -8 15 -9 15 -1 0 6 -4 11 -10 11 -5 0
-19 9 -31 21 l-21 21 -19 -21 c-19 -20 -46 -30 -35 -13 7 12 -7 30 -21 25z
m82 -13 c3 -5 1 -10 -4 -10 -6 0 -11 5 -11 10 0 6 2 10 4 10 3 0 8 -4 11 -10z"/>
<path d="M3266 1994 c-4 -9 -2 -22 4 -28 8 -8 10 -7 5 5 -4 10 -1 16 8 16 8 0
14 -11 14 -28 0 -27 -14 -34 -30 -14 -5 6 -6 1 -2 -10 4 -11 7 -30 6 -42 0
-13 4 -23 10 -23 5 0 8 4 5 9 -3 5 6 25 19 46 l25 36 -20 26 c-11 15 -20 20
-20 12 0 -12 -2 -12 -9 -1 -6 11 -10 10 -15 -4z m54 -34 c0 -5 -4 -10 -10 -10
-5 0 -10 5 -10 10 0 6 5 10 10 10 6 0 10 -4 10 -10z"/>
<path d="M3540 1939 c0 -5 5 -7 10 -4 6 3 10 8 10 11 0 2 -4 4 -10 4 -5 0 -10
-5 -10 -11z"/>
<path d="M3993 2004 c0 -18 3 -32 7 -29 9 6 10 54 1 59 -4 3 -7 -11 -8 -30z"/>
<path d="M4190 1981 c0 -5 5 -13 10 -16 6 -3 10 -2 10 4 0 5 -4 13 -10 16 -5
3 -10 2 -10 -4z"/>
<path d="M3676 1953 c-6 -14 -5 -15 5 -6 7 7 10 15 7 18 -3 3 -9 -2 -12 -12z"/>
<path d="M3695 1880 c-3 -5 -2 -10 4 -10 5 0 13 5 16 10 3 6 2 10 -4 10 -5 0
-13 -4 -16 -10z"/>
<path d="M3766 1735 c-3 -8 -2 -22 1 -32 4 -11 3 -14 -5 -9 -7 4 -12 2 -12 -4
0 -27 25 0 26 28 2 35 -1 40 -10 17z"/>
<path d="M3775 1670 c-3 -5 -1 -10 4 -10 6 0 11 5 11 10 0 6 -2 10 -4 10 -3 0
-8 -4 -11 -10z"/>
<path d="M3661 1825 c0 -5 3 -16 8 -23 7 -11 9 -10 14 3 4 9 3 14 -2 10 -5 -3
-12 1 -14 7 -3 7 -6 9 -6 3z"/>
<path d="M5323 3497 c-78 -180 -97 -312 -57 -392 38 -78 159 -104 227 -50 82
66 101 158 51 256 -46 92 -163 239 -189 239 -5 0 -20 -24 -32 -53z"/>
</g>
</svg>
