<?xml version="1.0" encoding="UTF-8" standalone="no"?>
<!--
  - maskable-icon.svg
  - Copyright (c) 2022 james@firefly-iii.org
  -
  - This file is part of Firefly III (https://github.com/firefly-iii).
  -
  - This program is free software: you can redistribute it and/or modify
  - it under the terms of the GNU Affero General Public License as
  - published by the Free Software Foundation, either version 3 of the
  - License, or (at your option) any later version.
  -
  - This program is distributed in the hope that it will be useful,
  - but WITHOUT ANY WARRANTY; without even the implied warranty of
  - MERCHANTABILITY or FITNESS FOR A PARTICULAR PURPOSE.  See the
  - GNU Affero General Public License for more details.
  -
  - You should have received a copy of the GNU Affero General Public License
  - along with this program.  If not, see <https://www.gnu.org/licenses/>.
  -->

<svg
   height="377.95276"
   width="377.95276"
   version="1.1"
   id="svg5"
   sodipodi:docname="icon.svg"
   inkscape:version="1.3 (0e150ed, 2023-07-21)"
   inkscape:export-filename="icon-plain.svg"
   inkscape:export-xdpi="96"
   inkscape:export-ydpi="96"
   xmlns:inkscape="http://www.inkscape.org/namespaces/inkscape"
   xmlns:sodipodi="http://sodipodi.sourceforge.net/DTD/sodipodi-0.dtd"
   xmlns="http://www.w3.org/2000/svg"
   xmlns:svg="http://www.w3.org/2000/svg">
  <defs
     id="defs5" />
  <sodipodi:namedview
     id="namedview5"
     pagecolor="#505050"
     bordercolor="#eeeeee"
     borderopacity="1"
     inkscape:showpageshadow="0"
     inkscape:pageopacity="0"
     inkscape:pagecheckerboard="0"
     inkscape:deskcolor="#505050"
     inkscape:zoom="1.1888708"
     inkscape:cx="259.48993"
     inkscape:cy="216.59208"
     inkscape:window-width="1512"
     inkscape:window-height="916"
     inkscape:window-x="0"
     inkscape:window-y="38"
     inkscape:window-maximized="1"
     inkscape:current-layer="svg5" />
  <rect
     style="font-variation-settings:normal;opacity:1;vector-effect:none;fill:#be5836;fill-opacity:1;stroke-width:0.646456;stroke-linecap:butt;stroke-linejoin:miter;stroke-miterlimit:4;stroke-dasharray:none;stroke-dashoffset:0;stroke-opacity:1;-inkscape-stroke:none"
     id="rect6"
     width="377.95276"
     height="377.95276"
     x="0"
     y="0"
     inkscape:label="Background" />
  <g
     transform="matrix(0.77452773,0,0,0.77452773,21.636074,21.374655)"
     id="g4"
     inkscape:label="Piggy Bank">
    <path
       d="m 190.69245,188.97638 c 0,0 3.07711,10.42256 -2.83112,16.49058 -5.90835,6.06803 -5.26964,12.77476 -2.87433,15.96846 2.3953,3.19368 2.2355,5.58886 0.31923,7.34544 -1.91614,1.75659 -3.51305,3.03402 -4.63079,0.15969 -1.11775,-2.87434 -2.39518,-2.87434 -2.87434,-4.31145 -0.47916,-1.4371 -1.43723,-3.99207 -1.43723,-3.99207 0,0 -3.03401,4.79059 -4.95027,7.66492 -1.91627,2.87434 -1.91614,7.34558 -0.63872,9.74075 1.27743,2.39518 0.79839,5.26951 -0.15968,9.26159 -0.95807,3.99209 0.31936,10.06011 4.79048,12.45541 4.47112,2.3953 9.90055,4.31144 12.29573,6.54706 2.39517,2.23562 7.98428,4.31144 15.17006,2.71465 7.18577,-1.59678 16.28793,-8.94223 17.88471,-13.89251 0,0 4.15176,-4.63079 3.35337,-10.69882 -0.79839,-6.06802 -3.67285,-5.90846 -4.95028,-10.53926 -1.27742,-4.63079 2.76423,-3.489 -0.63871,-11.43967 0,0 -1.51682,-3.7842 -7.27993,-6.51044 -3.70299,-1.7516 -1.18327,-9.67535 -7.73033,-17.65952 -6.54706,-7.98417 -12.81785,-9.30481 -12.81785,-9.30481 z"
       fill="#ffa284"
       stroke-width=".162598"
       id="path5"
       style="font-variation-settings:normal;display:inline;opacity:1;vector-effect:none;fill:#ffffff;fill-opacity:0.40239;stroke-width:0.124554;stroke-linecap:butt;stroke-linejoin:miter;stroke-miterlimit:4;stroke-dasharray:none;stroke-dashoffset:0;stroke-opacity:1;-inkscape-stroke:none;stop-color:#000000;stop-opacity:1"
       inkscape:label="Fire"
       transform="matrix(1.2911094,0,0,1.2911094,-27.934538,-27.597017)" />
    <path
       id="path2"
       style="fill:#f9f9f9"
       inkscape:label="Pig"
       d="M 152.12226 77.751959 C 148.41316 77.648752 144.53376 77.9206 140.48967 78.647162 L 142.73902 131.66334 C 142.73902 131.66334 102.63716 161.22965 97.202202 199.66345 L 81.199507 200.89656 C 81.199507 200.89656 69.660217 203.45894 69.660217 214.99789 L 69.660217 252.17781 C 69.660217 252.17781 73.506574 263.7171 82.480529 263.7171 L 98.967391 263.39684 C 98.967391 263.39684 106.96912 293.89646 135.46897 313.89636 L 135.46897 339.3983 C 135.46897 339.3983 133.46742 347.89799 150.96732 350.39794 C 168.46727 352.89794 191.71773 352.64753 195.46773 348.89753 C 199.21768 345.14758 199.21749 344.39759 199.21749 339.89759 C 199.21749 339.89759 220.46862 344.89759 259.46842 339.89759 L 259.46842 344.89812 C 259.46842 344.89812 262.96805 351.89835 288.46795 351.89835 C 313.9678 351.89835 321.46812 348.89754 325.96812 339.89759 L 325.96812 314.89748 C 325.96812 314.89748 362.97723 278.63372 361.71823 223.14802 C 361.53553 215.0925 360.9315 207.98921 360.00852 201.54968 C 340.66281 197.17333 330.45926 204.33363 330.45926 204.33363 C 341.68022 212.41759 346.02823 225.75293 346.02823 225.75293 C 348.15919 239.13389 342.96113 246.55548 336.31717 250.56644 C 329.35221 254.77244 320.91716 254.82307 320.91716 254.82307 C 285.20928 247.74511 308.15737 207.31428 308.15737 207.31428 C 275.74249 195.97032 262.90298 239.88705 262.90298 239.88705 C 262.12898 223.21713 263.60111 209.12636 278.42907 197.1014 C 292.70803 185.52144 319.41927 194.5091 319.41927 194.5091 C 337.1007 184.47407 352.11668 187.76123 357.71125 189.61196 C 351.87386 165.99441 340.2247 153.60427 325.91264 140.18668 C 303.24279 118.93278 255.96754 109.02153 207.96779 114.83353 C 207.96869 114.83262 187.97714 78.749622 152.12226 77.751959 z M 135.46897 204.89597 A 9.5 9.5 0 0 1 144.96821 214.39521 A 9.5 9.5 0 0 1 135.46897 223.89696 A 9.5 9.5 0 0 1 125.96973 214.39521 A 9.5 9.5 0 0 1 135.46897 204.89597 z M 218.27144 216.39239 C 218.27144 216.39239 226.36586 218.09733 234.81883 228.40576 C 243.27179 238.71419 240.01875 248.94545 244.79971 251.20695 C 252.2405 254.72682 254.2006 259.61177 254.2006 259.61177 C 258.59416 269.87695 253.3759 268.40251 255.02519 274.38136 C 256.67449 280.36022 260.38437 280.15397 261.41517 287.98844 C 262.44598 295.82292 257.08542 301.8023 257.08542 301.8023 C 255.0238 308.19365 243.27184 317.67752 233.99423 319.73914 C 224.71661 321.80077 217.50063 319.12041 214.4082 316.23398 C 211.31577 313.34755 204.30681 310.87384 198.53411 307.78125 C 192.76141 304.68866 191.11142 296.8546 192.34839 291.70038 C 193.58536 286.54617 194.20447 282.83492 192.55517 279.74249 C 190.90588 276.65006 190.90565 270.87786 193.37976 267.16678 C 195.85386 263.45571 199.76975 257.26912 199.76975 257.26912 C 199.76975 257.26912 201.00707 260.56801 201.62571 262.42347 C 202.24436 264.27893 203.89452 264.28029 205.33765 267.99137 C 206.78078 271.70245 208.84266 270.05254 211.3166 267.7846 C 213.79071 265.51666 213.99563 262.42388 210.90304 258.30049 C 207.81044 254.17708 206.98666 245.51757 214.61498 237.68309 C 222.24314 229.84862 218.27144 216.39239 218.27144 216.39239 z " />
    <path
       d="m320.19013 213.01938s-16.689 31.461 5.607 29.767c0 0 11.838-5.656 4.887-17.127-7.147-11.796-10.494-12.64-10.494-12.64z"
       fill="#fff"
       id="path4"
       inkscape:label="Tail" />
  </g>
</svg>
