<?xml version="1.0" encoding="UTF-8"?>
<svg width="377.95" height="377.95" version="1.1" xmlns="http://www.w3.org/2000/svg">
 <g transform="matrix(.95851 0 0 .95851 -18.05 -18.161)">
  <path transform="matrix(1.2911 0 0 1.2911 -27.935 -27.597)" d="m190.69 188.98s3.0771 10.423-2.8311 16.491c-5.9084 6.068-5.2696 12.775-2.8743 15.968 2.3953 3.1937 2.2355 5.5889 0.31923 7.3454-1.9161 1.7566-3.513 3.034-4.6308 0.15969-1.1178-2.8743-2.3952-2.8743-2.8743-4.3114-0.47916-1.4371-1.4372-3.9921-1.4372-3.9921s-3.034 4.7906-4.9503 7.6649c-1.9163 2.8743-1.9161 7.3456-0.63872 9.7408 1.2774 2.3952 0.79839 5.2695-0.15968 9.2616-0.95807 3.9921 0.31936 10.06 4.7905 12.455s9.9006 4.3114 12.296 6.5471c2.3952 2.2356 7.9843 4.3114 15.17 2.7146 7.1858-1.5968 16.288-8.9422 17.885-13.893 0 0 4.1518-4.6308 3.3534-10.699-0.79839-6.068-3.6728-5.9085-4.9503-10.539-1.2774-4.6308 2.7642-3.489-0.63871-11.44 0 0-1.5168-3.7842-7.2799-6.5104-3.703-1.7516-1.1833-9.6754-7.7303-17.66s-12.818-9.3048-12.818-9.3048z" fill="#fff" fill-opacity=".40239" stop-color="#000000" stroke-width=".12455" style="-inkscape-stroke:none;font-variation-settings:normal"/>
  <path d="m152.12 77.752c-3.7091-0.10321-7.5885 0.16864-11.633 0.8952l2.2494 53.016s-40.102 29.566-45.537 68l-16.003 1.2331s-11.539 2.5624-11.539 14.101v37.18s3.8464 11.539 12.82 11.539l16.487-0.32026s8.0017 30.5 36.502 50.5v25.502s-2.0016 8.4997 15.498 11c17.5 2.5 40.75 2.2496 44.5-1.5004 3.75-3.75 3.7498-4.4999 3.7498-8.9999 0 0 21.251 5 60.251 0v5.0005s3.4996 7.0002 29 7.0002c25.5 0 33-3.0008 37.5-12.001v-25s37.009-36.264 35.75-91.749c-0.1827-8.0555-0.78673-15.159-1.7097-21.598-19.346-4.3764-29.549 2.784-29.549 2.784 11.221 8.084 15.569 21.419 15.569 21.419 2.131 13.381-3.0671 20.803-9.7111 24.814-6.965 4.206-15.4 4.2566-15.4 4.2566-35.708-7.078-12.76-47.509-12.76-47.509-32.415-11.344-45.254 32.573-45.254 32.573-0.774-16.67 0.69813-30.761 15.526-42.786 14.279-11.58 40.99-2.5923 40.99-2.5923 17.681-10.035 32.697-6.7479 38.292-4.8971-5.8374-23.618-17.487-36.008-31.799-49.425-22.67-21.254-69.945-31.165-117.94-25.353 9e-4 -9.1e-4 -19.991-36.084-55.846-37.082zm-16.653 127.14a9.5 9.5 0 0 1 9.4992 9.4992 9.5 9.5 0 0 1-9.4992 9.5018 9.5 9.5 0 0 1-9.4992-9.5018 9.5 9.5 0 0 1 9.4992-9.4992zm82.802 11.496s8.0944 1.7049 16.547 12.013c8.453 10.308 5.1999 20.54 9.9809 22.801 7.4408 3.5199 9.4009 8.4048 9.4009 8.4048 4.3936 10.265-0.8247 8.7907 0.82459 14.77 1.6493 5.9789 5.3592 5.7726 6.39 13.607 1.0308 7.8345-4.3298 13.814-4.3298 13.814-2.0616 6.3914-13.814 15.875-23.091 17.937-9.2776 2.0616-16.494-0.61873-19.586-3.5052s-10.101-5.3601-15.874-8.4527-7.4227-10.927-6.1857-16.081c1.237-5.1542 1.8561-8.8655 0.20678-11.958-1.6493-3.0924-1.6495-8.8646 0.82459-12.576 2.4741-3.7111 6.39-9.8977 6.39-9.8977s1.2373 3.2989 1.856 5.1544c0.61865 1.8555 2.2688 1.8568 3.7119 5.5679s3.505 2.0612 5.979-0.20677c2.4741-2.2679 2.679-5.3607-0.41356-9.4841-3.0926-4.1234-3.9164-12.783 3.7119-20.617 7.6282-7.8345 3.6565-21.291 3.6565-21.291z" fill="#f9f9f9"/>
  <path d="m320.19 213.02s-16.689 31.461 5.607 29.767c0 0 11.838-5.656 4.887-17.127-7.147-11.796-10.494-12.64-10.494-12.64z" fill="#fff"/>
 </g>
</svg>
