<?xml version="1.0" encoding="UTF-8" standalone="no"?>
<!--
  - maskable-icon.svg
  - Copyright (c) 2022 james@firefly-iii.org
  -
  - This file is part of Firefly III (https://github.com/firefly-iii).
  -
  - This program is free software: you can redistribute it and/or modify
  - it under the terms of the GNU Affero General Public License as
  - published by the Free Software Foundation, either version 3 of the
  - License, or (at your option) any later version.
  -
  - This program is distributed in the hope that it will be useful,
  - but WITHOUT ANY WARRANTY; without even the implied warranty of
  - MERCHANTABILITY or FITNESS FOR A PARTICULAR PURPOSE.  See the
  - GNU Affero General Public License for more details.
  -
  - You should have received a copy of the GNU Affero General Public License
  - along with this program.  If not, see <https://www.gnu.org/licenses/>.
  -->

<svg
   height="377.95276"
   width="377.95276"
   version="1.1"
   id="svg5"
   sodipodi:docname="icon-transparent.svg"
   inkscape:version="1.3 (0e150ed, 2023-07-21)"
   inkscape:export-filename="icon-plain.svg"
   inkscape:export-xdpi="96"
   inkscape:export-ydpi="96"
   xmlns:inkscape="http://www.inkscape.org/namespaces/inkscape"
   xmlns:sodipodi="http://sodipodi.sourceforge.net/DTD/sodipodi-0.dtd"
   xmlns="http://www.w3.org/2000/svg"
   xmlns:svg="http://www.w3.org/2000/svg">
  <defs
     id="defs5" />
  <sodipodi:namedview
     id="namedview5"
     pagecolor="#505050"
     bordercolor="#eeeeee"
     borderopacity="1"
     inkscape:showpageshadow="0"
     inkscape:pageopacity="0"
     inkscape:pagecheckerboard="0"
     inkscape:deskcolor="#505050"
     inkscape:zoom="1.1888708"
     inkscape:cx="259.48993"
     inkscape:cy="216.59208"
     inkscape:window-width="1512"
     inkscape:window-height="916"
     inkscape:window-x="0"
     inkscape:window-y="38"
     inkscape:window-maximized="1"
     inkscape:current-layer="svg5" />
  <g
     transform="matrix(0.95851167,0,0,0.95851167,-18.050168,-18.160604)"
     id="g4"
     inkscape:label="Piggy Bank">
    <path
       d="m 190.69245,188.97638 c 0,0 3.07711,10.42256 -2.83112,16.49058 -5.90835,6.06803 -5.26964,12.77476 -2.87433,15.96846 2.3953,3.19368 2.2355,5.58886 0.31923,7.34544 -1.91614,1.75659 -3.51305,3.03402 -4.63079,0.15969 -1.11775,-2.87434 -2.39518,-2.87434 -2.87434,-4.31145 -0.47916,-1.4371 -1.43723,-3.99207 -1.43723,-3.99207 0,0 -3.03401,4.79059 -4.95027,7.66492 -1.91627,2.87434 -1.91614,7.34558 -0.63872,9.74075 1.27743,2.39518 0.79839,5.26951 -0.15968,9.26159 -0.95807,3.99209 0.31936,10.06011 4.79048,12.45541 4.47112,2.3953 9.90055,4.31144 12.29573,6.54706 2.39517,2.23562 7.98428,4.31144 15.17006,2.71465 7.18577,-1.59678 16.28793,-8.94223 17.88471,-13.89251 0,0 4.15176,-4.63079 3.35337,-10.69882 -0.79839,-6.06802 -3.67285,-5.90846 -4.95028,-10.53926 -1.27742,-4.63079 2.76423,-3.489 -0.63871,-11.43967 0,0 -1.51682,-3.7842 -7.27993,-6.51044 -3.70299,-1.7516 -1.18327,-9.67535 -7.73033,-17.65952 -6.54706,-7.98417 -12.81785,-9.30481 -12.81785,-9.30481 z"
       fill="#ffa284"
       stroke-width=".162598"
       id="path5"
       style="font-variation-settings:normal;display:inline;opacity:1;vector-effect:none;fill:#ffffff;fill-opacity:0.40239;stroke-width:0.124554;stroke-linecap:butt;stroke-linejoin:miter;stroke-miterlimit:4;stroke-dasharray:none;stroke-dashoffset:0;stroke-opacity:1;-inkscape-stroke:none;stop-color:#000000;stop-opacity:1"
       inkscape:label="Fire"
       transform="matrix(1.2911094,0,0,1.2911094,-27.934538,-27.597017)" />
    <path
       id="path2"
       style="fill:#f9f9f9"
       inkscape:label="Pig"
       d="m 152.12226,77.751959 c -3.7091,-0.103207 -7.5885,0.168641 -11.63259,0.895203 l 2.24935,53.016178 c 0,0 -40.10186,29.56631 -45.536818,68.00011 l -16.002695,1.23311 c 0,0 -11.53929,2.56238 -11.53929,14.10133 v 37.17992 c 0,0 3.846357,11.53929 12.820312,11.53929 l 16.486862,-0.32026 c 0,0 8.001729,30.49962 36.501579,50.49952 v 25.50194 c 0,0 -2.00155,8.49969 15.49835,10.99964 17.49995,2.5 40.75041,2.24959 44.50041,-1.50041 3.74995,-3.74995 3.74976,-4.49994 3.74976,-8.99994 0,0 21.25113,5 60.25093,0 v 5.00053 c 0,0 3.49963,7.00023 28.99953,7.00023 25.49985,0 33.00017,-3.00081 37.50017,-12.00076 v -25.00011 c 0,0 37.00911,-36.26376 35.75011,-91.74946 -0.1827,-8.05552 -0.78673,-15.15881 -1.70971,-21.59834 -19.34571,-4.37635 -29.54926,2.78395 -29.54926,2.78395 11.22096,8.08396 15.56897,21.4193 15.56897,21.4193 2.13096,13.38096 -3.0671,20.80255 -9.71106,24.81351 -6.96496,4.206 -15.40001,4.25663 -15.40001,4.25663 -35.70788,-7.07796 -12.75979,-47.50879 -12.75979,-47.50879 -32.41488,-11.34396 -45.25439,32.57277 -45.25439,32.57277 -0.774,-16.66992 0.69813,-30.76069 15.52609,-42.78565 14.27896,-11.57996 40.9902,-2.5923 40.9902,-2.5923 17.68143,-10.03503 32.69741,-6.74787 38.29198,-4.89714 -5.83739,-23.61755 -17.48655,-36.00769 -31.79861,-49.42528 -22.66985,-21.2539 -69.9451,-31.16515 -117.94485,-25.35315 9e-4,-9.1e-4 -19.99065,-36.083908 -55.84553,-37.081571 z M 135.46897,204.89597 a 9.5,9.5 0 0 1 9.49924,9.49924 9.5,9.5 0 0 1 -9.49924,9.50175 9.5,9.5 0 0 1 -9.49924,-9.50175 9.5,9.5 0 0 1 9.49924,-9.49924 z m 82.80247,11.49642 c 0,0 8.09442,1.70494 16.54739,12.01337 8.45296,10.30843 5.19992,20.53969 9.98088,22.80119 7.44079,3.51987 9.40089,8.40482 9.40089,8.40482 4.39356,10.26518 -0.8247,8.79074 0.82459,14.76959 1.6493,5.97886 5.35918,5.77261 6.38998,13.60708 1.03081,7.83448 -4.32975,13.81386 -4.32975,13.81386 -2.06162,6.39135 -13.81358,15.87522 -23.09119,17.93684 -9.27762,2.06163 -16.4936,-0.61873 -19.58603,-3.50516 -3.09243,-2.88643 -10.10139,-5.36014 -15.87409,-8.45273 -5.7727,-3.09259 -7.42269,-10.92665 -6.18572,-16.08087 1.23697,-5.15421 1.85608,-8.86546 0.20678,-11.95789 -1.64929,-3.09243 -1.64952,-8.86463 0.82459,-12.57571 2.4741,-3.71107 6.38999,-9.89766 6.38999,-9.89766 0,0 1.23732,3.29889 1.85596,5.15435 0.61865,1.85546 2.26881,1.85682 3.71194,5.5679 1.44313,3.71108 3.50501,2.06117 5.97895,-0.20677 2.47411,-2.26794 2.67903,-5.36072 -0.41356,-9.48411 -3.0926,-4.12341 -3.91638,-12.78292 3.71194,-20.6174 7.62816,-7.83447 3.65646,-21.2907 3.65646,-21.2907 z" />
    <path
       d="m 320.19013,213.01938 c 0,0 -16.689,31.461 5.607,29.767 0,0 11.838,-5.656 4.887,-17.127 -7.147,-11.796 -10.494,-12.64 -10.494,-12.64 z"
       fill="#ffffff"
       id="path4"
       inkscape:label="Tail" />
  </g>
</svg>
